<svg width="130" height="71" viewBox="0 0 130 71" fill="none" xmlns="http://www.w3.org/2000/svg">
<path d="M1.04434 61.2884H0V70.192H1.04434V61.2884Z" fill="#221F1F"/>
<path d="M6.05956 62.3443V70.1906H5.00366V62.3443H2.14941V61.2884H8.91526V62.3443H6.05956Z" fill="#221F1F"/>
<path d="M13.0461 63.6891C13.0461 63.9159 13.0967 64.0921 13.1848 64.2293C13.5488 64.745 14.3288 64.8837 15.2229 65.0599C16.4175 65.2982 17.5861 65.525 18.1277 66.5563C18.278 66.8452 18.3545 67.2222 18.3545 67.6758V67.8751C18.2548 69.5233 16.7078 70.3163 15.1233 70.3163C13.79 70.3163 12.3557 69.6865 11.8169 68.4053L12.7847 67.9647C13.1487 68.8184 14.193 69.2705 15.1493 69.2705C16.2052 69.2705 17.2365 68.7938 17.3001 67.826C17.3131 67.7625 17.3131 67.7119 17.3131 67.6614C17.3131 67.423 17.2625 67.2092 17.1628 67.046C16.7988 66.4292 15.9177 66.253 14.9745 66.0522C13.5416 65.7503 12.0061 65.3358 12.0061 63.549C12.1072 62.002 13.5907 61.1599 15.1377 61.1599C16.4464 61.1599 17.8547 61.7636 18.395 63.0218L17.4402 63.4493C17.0762 62.6188 16.0694 62.1782 15.1391 62.1782C14.0963 62.1782 13.1155 62.6433 13.0519 63.5865V63.6891H13.0461Z" fill="#221F1F"/>
<path d="M19.5435 63.9534C19.5435 62.0915 21.3173 61.1613 23.1026 61.1613C24.875 61.1613 26.6617 62.093 26.6617 63.9534V67.5111C26.6617 69.373 24.8764 70.3163 23.1026 70.3163C21.3173 70.3163 19.5435 69.373 19.5435 67.5111V63.9534ZM20.5878 67.4996C20.5878 68.6566 21.8329 69.2604 23.1026 69.2604C24.3593 69.2604 25.6174 68.6566 25.6174 67.4996V63.9549C25.6174 62.7083 24.3477 62.1941 23.0896 62.1941C21.8329 62.1941 20.5878 62.7603 20.5878 63.9549V67.4996Z" fill="#221F1F"/>
<path d="M28.2666 61.2884H29.3225V69.1347H33.5995V70.1906H28.2666V61.2884Z" fill="#221F1F"/>
<path d="M35.3952 67.475C35.3952 68.6811 36.5652 69.2604 37.7208 69.2604C38.8778 69.2604 40.0478 68.6811 40.0478 67.475V61.2884H41.1037V67.475C41.1037 69.3615 39.4051 70.3177 37.7208 70.3177C36.0236 70.3177 34.3379 69.3615 34.3379 67.475V61.2884H35.3938V67.475H35.3952Z" fill="#221F1F"/>
<path d="M46.0537 62.3443V70.1906H44.9978V62.3443H42.1436V61.2884H48.9094V62.3443H46.0537Z" fill="#221F1F"/>
<path d="M51.0546 61.2884H50.0103V70.192H51.0546V61.2884Z" fill="#221F1F"/>
<path d="M52.6504 63.9534C52.6504 62.0915 54.4242 61.1613 56.2095 61.1613C57.9833 61.1613 59.7687 62.093 59.7687 63.9534V67.5111C59.7687 69.373 57.9833 70.3163 56.2095 70.3163C54.4242 70.3163 52.6504 69.373 52.6504 67.5111V63.9534ZM53.6947 67.4996C53.6947 68.6566 54.9399 69.2604 56.2095 69.2604C57.4677 69.2604 58.7243 68.6566 58.7243 67.4996V63.9549C58.7243 62.7083 57.4547 62.1941 56.1965 62.1941C54.9384 62.1941 53.6947 62.7603 53.6947 63.9549V67.4996Z" fill="#221F1F"/>
<path d="M67.082 61.2884H68.1394V70.1906H66.8061L62.4294 63.1359V70.1906H61.3735V61.2884H62.5045L67.082 68.645V61.2884Z" fill="#221F1F"/>
<path d="M70.6877 63.6891C70.6877 63.9159 70.7383 64.0921 70.8264 64.2293C71.1904 64.745 71.9704 64.8837 72.8645 65.0599C74.0591 65.2982 75.2276 65.525 75.7693 66.5563C75.9195 66.8452 75.9961 67.2222 75.9961 67.6758V67.8751C75.8964 69.5233 74.3494 70.3163 72.7648 70.3163C71.4316 70.3163 69.9973 69.6865 69.457 68.4053L70.4248 67.9647C70.7888 68.8184 71.8332 69.2705 72.7894 69.2705C73.8453 69.2705 74.8766 68.7938 74.9402 67.826C74.9518 67.7625 74.9518 67.7119 74.9518 67.6614C74.9518 67.423 74.9012 67.2092 74.8015 67.046C74.4375 66.4292 73.5564 66.253 72.6132 66.0522C71.1803 65.7503 69.6448 65.3358 69.6448 63.549C69.7459 62.002 71.2294 61.1599 72.775 61.1599C74.0836 61.1599 75.492 61.7636 76.0322 63.0218L75.076 63.4493C74.712 62.6188 73.7052 62.1782 72.775 62.1782C71.7321 62.1782 70.7513 62.6433 70.6877 63.5865V63.6891Z" fill="#221F1F"/>
<path d="M82.7271 61.2884H86.123C88.1221 61.2884 89.1289 62.7213 89.1289 64.1426C89.1289 65.5755 88.1106 66.9839 86.136 66.9839H83.7714V70.1906H82.7271V61.2884ZM86.123 65.928C87.4432 65.928 88.0846 65.0483 88.0846 64.1426C88.0846 63.237 87.4187 62.3443 86.123 62.3443H83.7714V65.928H86.123Z" fill="#221F1F"/>
<path d="M90.4447 61.2884L93.1862 68.9975L95.9163 61.2884H97.0213L93.8276 70.1906H92.5319L89.3252 61.2884H90.4447Z" fill="#221F1F"/>
<path d="M101.143 62.3443V70.1906H100.087V62.3443H97.2324V61.2884H103.998V62.3443H101.143Z" fill="#221F1F"/>
<path d="M107.438 61.2884H108.493V69.1347H112.769V70.1906H107.438V61.2884Z" fill="#221F1F"/>
<path d="M115.597 62.3443V70.1906H114.54V62.3443H111.686V61.2884H118.451V62.3443H115.597Z" fill="#221F1F"/>
<path d="M122.573 61.2884C124.27 61.2884 125.956 62.08 125.956 63.9664V67.5256C125.956 69.3976 124.27 70.1906 122.573 70.1906H119.554V61.2884H122.573ZM122.573 69.1347C123.73 69.1347 124.9 68.6811 124.9 67.5256V63.9664C124.9 62.7964 123.73 62.3443 122.573 62.3443H120.611V69.1347H122.573Z" fill="#221F1F"/>
<path d="M47.8707 52.9683C47.8621 52.9885 47.8548 53.0058 47.8462 53.0261C47.5168 53.8075 47.0156 54.004 46.1851 53.9852C43.5532 53.9187 40.9157 53.9577 38.281 53.9679C38.1553 53.9679 38.047 53.9505 37.9502 53.9086C40.8377 53.9 43.7266 53.9072 46.6141 53.8956C46.7816 53.8942 46.9824 53.809 47.1081 53.6963C47.3681 53.4623 47.6194 53.2153 47.8707 52.9683Z" fill="#8E2B89"/>
<path d="M37.9501 53.9086H37.7811C37.5457 53.9086 37.4417 53.8191 37.3073 53.6371C37.1398 53.4132 37.0098 53.1806 36.9072 52.9437C37.173 53.1965 37.433 53.4565 37.6887 53.7208C37.7696 53.8061 37.8562 53.8696 37.9501 53.9086Z" fill="#8E2B89"/>
<path d="M22.8817 0.216685V10.3597C22.0511 10.3351 21.2335 10.2643 20.4203 10.2932C16.3571 10.4333 13.523 12.6824 12.4469 16.6041C12.0973 17.8795 11.9168 19.181 11.9327 20.5041C12.0439 29.3832 12.1566 38.2623 12.2707 47.1414C12.301 49.5637 12.3299 51.9861 12.3675 54.4056C12.3703 54.6396 12.3068 54.8028 12.1363 54.9602C11.6813 55.3791 11.2552 55.8269 10.7973 56.24C10.6731 56.3512 10.4709 56.4365 10.3062 56.4379C7.36096 56.448 4.41716 56.4408 1.47335 56.4524C1.2379 56.4524 1.13246 56.3628 0.998122 56.1794C0.392894 55.3618 0.251337 54.4648 0.258559 53.4537C0.352449 40.3134 0.462228 27.1717 0.459339 14.0286C0.45645 9.06977 2.75892 5.64207 6.91174 3.26738C9.37165 1.86337 12.0728 1.15125 14.8476 0.707801C17.4332 0.294686 20.039 0.17624 22.6549 0.200796C22.7242 0.200796 22.7921 0.209463 22.8817 0.216685Z" fill="#030303"/>
<path d="M59.194 0.218112V10.3597C58.3605 10.3351 57.5444 10.2658 56.7283 10.2947C52.6665 10.4348 49.8354 12.6838 48.7563 16.6055C48.4082 17.8781 48.2262 19.1795 48.2421 20.5012C48.3533 29.3832 48.4689 38.2608 48.5801 47.1399C48.6119 49.5623 48.6393 51.9861 48.6769 54.4041C48.6798 54.6381 48.6162 54.8013 48.4429 54.9602C48.2493 55.1393 48.0587 55.3242 47.8694 55.512C47.6181 55.7576 47.3668 56.006 47.1068 56.2386C46.9811 56.3512 46.7803 56.4365 46.6128 56.4379C43.7253 56.448 40.8364 56.4408 37.9489 56.4509C37.855 56.4119 37.7698 56.3498 37.6875 56.2646C37.4332 56.0002 37.1718 55.7402 36.906 55.4874C36.7702 55.3546 36.6316 55.226 36.49 55.0974C36.2632 54.8894 36.1766 54.6713 36.1809 54.3593C36.2791 47.8188 36.3701 41.2783 36.4524 34.7392C36.5131 30.0043 36.5709 25.2694 36.6084 20.533C36.6243 18.7029 36.3354 16.9204 35.6031 15.2347C34.2713 12.1681 31.8518 10.6298 28.583 10.3741C27.6658 10.3019 26.737 10.3611 25.7822 10.3611V0.26289C26.3586 0.26289 26.9248 0.255668 27.4881 0.264335C30.6992 0.314891 33.8842 0.60956 36.9883 1.47335C38.908 2.00635 40.7324 2.72714 42.3733 3.78737C42.6463 3.60826 42.9323 3.43492 43.2241 3.26592C45.684 1.86335 48.3822 1.15123 51.1599 0.707784C53.7441 0.294668 56.3513 0.174778 58.9658 0.199334C59.0337 0.202223 59.103 0.21089 59.194 0.218112Z" fill="#990099"/>
<path d="M62.0928 10.364V0.262892C62.6691 0.262892 63.2353 0.25567 63.7987 0.264336C67.0112 0.314893 70.1933 0.609562 73.2989 1.47335C76.0838 2.24758 78.6679 3.41615 80.7884 5.44272C82.7225 7.29452 83.8926 9.54065 84.2147 12.2071C84.2753 12.7098 84.2421 13.2255 84.245 13.7354C84.3172 27.2685 84.3866 40.8002 84.466 54.3333C84.4674 54.7854 84.3317 55.1624 84.1569 55.5741C83.8261 56.3556 83.3263 56.5506 82.4958 56.5289C79.8611 56.4668 77.2249 56.5043 74.5902 56.5116C74.3461 56.513 74.1699 56.4451 73.9994 56.2674C73.6138 55.8673 73.2151 55.4744 72.802 55.1003C72.5738 54.8923 72.49 54.6742 72.4929 54.3622C72.5925 47.8231 72.6792 41.2812 72.7644 34.7421C72.8251 30.0057 72.8814 25.2708 72.9219 20.5359C72.9363 18.7086 72.6474 16.9233 71.9151 15.2376C70.5833 12.171 68.1667 10.6341 64.895 10.377C63.9749 10.3033 63.0476 10.364 62.0928 10.364Z" fill="#030303"/>
<path d="M108.773 28.3923C107.523 27.8694 106.393 27.2468 105.369 26.448C101.977 23.809 99.9998 20.3611 99.5867 16.0725C98.9525 9.48863 102.968 3.19079 109.192 0.941768C114.999 -1.15559 121.281 0.301873 125.437 4.79847C128.43 8.03262 129.759 11.8994 129.26 16.2834C128.651 21.6452 125.793 25.5048 121.027 27.982C120.965 28.0138 120.901 28.0427 120.838 28.0759C120.823 28.0831 120.812 28.0976 120.777 28.1265C121.122 28.2897 121.463 28.4342 121.789 28.606C126.384 31.0226 129.191 34.7696 129.871 39.9306C130.89 47.644 125.746 54.3665 118.643 56.0999C111.332 57.8852 103.751 54.017 101.141 46.9608C99.0825 41.3996 100.159 36.3079 104.067 31.846C105.301 30.4347 106.815 29.3658 108.499 28.5425C108.577 28.5035 108.649 28.4587 108.773 28.3923ZM115.174 51.8315C116.732 51.8272 118.216 51.4877 119.629 50.8276C123.741 48.9007 126.064 44.3506 125.175 39.9465C124.238 35.2867 120.101 31.8864 115.312 31.8445C113.504 31.8301 111.802 32.249 110.208 33.107C106.316 35.2029 104.226 39.7168 105.197 43.939C106.266 48.5959 110.357 51.8301 115.174 51.8315ZM114.927 24.9126C116.82 24.9126 118.651 24.3954 120.329 23.3858C123.813 21.2899 125.689 17.1746 124.973 13.2052C124.16 8.69418 120.346 5.27081 115.629 4.94725C113.854 4.82592 112.155 5.15237 110.53 5.89193C106.155 7.88528 103.813 12.8311 105.064 17.4707C106.243 21.8445 110.306 24.9126 114.927 24.9126Z" fill="#990099"/>
<path d="M115.174 51.8315C110.357 51.8301 106.266 48.5974 105.196 43.9404C104.226 39.7168 106.316 35.2058 110.206 33.1084C111.801 32.2504 113.504 31.8315 115.311 31.8474C120.099 31.8864 124.236 35.2881 125.177 39.9465C126.064 44.3507 123.739 48.9036 119.629 50.8276C118.216 51.4877 116.734 51.8272 115.174 51.8315ZM121.711 41.8705C121.68 41.547 121.655 41.2248 121.613 40.9013C121.583 40.6861 121.538 40.4708 121.479 40.2599C120.368 36.3296 115.851 34.4128 112.174 36.3079C108.909 37.9921 107.741 41.9384 109.59 45.0382C110.994 47.3927 113.757 48.5757 116.579 48.0282C119.516 47.4591 121.691 44.8389 121.711 41.8705Z" fill="#060406"/>
<path d="M114.926 24.9126C110.308 24.9126 106.243 21.846 105.063 17.4722C103.812 12.8341 106.154 7.88534 110.53 5.89343C112.154 5.15387 113.854 4.82742 115.628 4.94876C120.345 5.27232 124.159 8.69568 124.972 13.2067C125.688 17.1761 123.812 21.2943 120.328 23.3873C118.65 24.397 116.822 24.9126 114.926 24.9126ZM108.187 14.4836C108.199 15.7172 108.424 16.6648 108.889 17.5517C110.524 20.6674 114.396 21.9009 117.618 20.3351C121.351 18.5223 122.36 13.7527 119.626 10.6515C118.031 8.84157 115.979 8.17568 113.597 8.51513C110.545 8.95135 108.187 11.6554 108.187 14.4836Z" fill="#060406"/>
<path d="M121.712 41.8705C121.691 44.8389 119.516 47.4591 116.579 48.0283C113.757 48.5757 110.994 47.3927 109.59 45.0382C107.741 41.9399 108.909 37.9922 112.174 36.3079C115.851 34.4113 120.367 36.3296 121.479 40.26C121.538 40.4709 121.583 40.6861 121.613 40.9013C121.655 41.2249 121.68 41.5484 121.712 41.8705Z" fill="#990099"/>
<path d="M108.187 14.4836C108.187 11.6554 110.544 8.95134 113.595 8.51511C115.978 8.17567 118.031 8.84156 119.624 10.6515C122.359 13.7527 121.35 18.5209 117.616 20.3351C114.395 21.9009 110.524 20.6673 108.888 17.5516C108.424 16.6648 108.2 15.7172 108.187 14.4836Z" fill="#990099"/>
</svg>
