<svg id="Layer_1" data-name="Layer 1" xmlns="http://www.w3.org/2000/svg" xmlns:xlink="http://www.w3.org/1999/xlink" viewBox="0 0 1500 1080"><defs><style>.cls-1{fill:none;}.cls-2{fill:url(#Áåçûìÿííûé_ãðàäèåíò_40);}.cls-3{fill:url(#Áåçûìÿííûé_ãðàäèåíò_40-2);}.cls-4{fill:url(#Áåçûìÿííûé_ãðàäèåíò_40-3);}.cls-5{fill:url(#Áåçûìÿííûé_ãðàäèåíò_40-4);}.cls-6{fill:url(#Áåçûìÿííûé_ãðàäèåíò_40-5);}.cls-7{clip-path:url(#clip-path);}.cls-8{fill:#f5f5f5;}.cls-9{clip-path:url(#clip-path-2);}.cls-10{clip-path:url(#clip-path-3);}.cls-11,.cls-16{fill:#e0e0e0;}.cls-11,.cls-13{fill-rule:evenodd;}.cls-12{fill:#909;}.cls-13{fill:#f5c0a2;}.cls-14{fill:#293237;}.cls-15{clip-path:url(#clip-path-4);}.cls-17{isolation:isolate;}.cls-18{fill:#b87cff;}.cls-19{fill:url(#Áåçûìÿííûé_ãðàäèåíò_40-6);}.cls-20{fill:url(#Áåçûìÿííûé_ãðàäèåíò_48);}.cls-21{clip-path:url(#clip-path-5);}.cls-22{fill:url(#Áåçûìÿííûé_ãðàäèåíò_40-8);}.cls-23{fill:url(#Áåçûìÿííûé_ãðàäèåíò_40-9);}.cls-24{fill:url(#Áåçûìÿííûé_ãðàäèåíò_40-10);}.cls-25{fill:url(#Áåçûìÿííûé_ãðàäèåíò_40-11);}.cls-26{fill:url(#Áåçûìÿííûé_ãðàäèåíò_40-12);}.cls-27{fill:url(#Áåçûìÿííûé_ãðàäèåíò_40-13);}.cls-28{fill:url(#Áåçûìÿííûé_ãðàäèåíò_40-14);}.cls-29{fill:url(#Áåçûìÿííûé_ãðàäèåíò_40-15);}.cls-30{fill:url(#Áåçûìÿííûé_ãðàäèåíò_40-16);}.cls-31{fill:url(#Áåçûìÿííûé_ãðàäèåíò_40-17);}.cls-32{fill:url(#Áåçûìÿííûé_ãðàäèåíò_40-18);}.cls-33{clip-path:url(#clip-path-6);}.cls-34{fill:url(#Áåçûìÿííûé_ãðàäèåíò_40-20);}.cls-35{fill:url(#Áåçûìÿííûé_ãðàäèåíò_40-21);}.cls-36{fill:url(#Áåçûìÿííûé_ãðàäèåíò_40-22);}.cls-37{fill:url(#Áåçûìÿííûé_ãðàäèåíò_40-23);}.cls-38{fill:url(#Áåçûìÿííûé_ãðàäèåíò_40-24);}.cls-39{fill:url(#Áåçûìÿííûé_ãðàäèåíò_40-25);}.cls-40{fill:url(#Áåçûìÿííûé_ãðàäèåíò_40-26);}.cls-41{fill:url(#Áåçûìÿííûé_ãðàäèåíò_40-27);}.cls-42{fill:url(#Áåçûìÿííûé_ãðàäèåíò_40-28);}.cls-43{fill:url(#Áåçûìÿííûé_ãðàäèåíò_40-29);}.cls-44{clip-path:url(#clip-path-7);}.cls-45{fill:url(#Áåçûìÿííûé_ãðàäèåíò_40-31);}.cls-46{fill:url(#Áåçûìÿííûé_ãðàäèåíò_40-32);}.cls-47{fill:url(#Áåçûìÿííûé_ãðàäèåíò_40-33);}.cls-48{fill:url(#Áåçûìÿííûé_ãðàäèåíò_40-34);}.cls-49{fill:url(#Áåçûìÿííûé_ãðàäèåíò_40-35);}.cls-50{fill:url(#Áåçûìÿííûé_ãðàäèåíò_40-36);}.cls-51{fill:url(#Áåçûìÿííûé_ãðàäèåíò_40-37);}.cls-52{fill:url(#Áåçûìÿííûé_ãðàäèåíò_40-38);}.cls-53{fill:url(#Áåçûìÿííûé_ãðàäèåíò_40-39);}.cls-54{fill:url(#Áåçûìÿííûé_ãðàäèåíò_40-40);}.cls-55{fill:url(#Áåçûìÿííûé_ãðàäèåíò_40-41);}.cls-56{fill:url(#Áåçûìÿííûé_ãðàäèåíò_40-42);}.cls-57{clip-path:url(#clip-path-8);}.cls-58{fill:url(#Áåçûìÿííûé_ãðàäèåíò_40-44);}.cls-59{fill:url(#Áåçûìÿííûé_ãðàäèåíò_40-45);}.cls-60{fill:url(#Áåçûìÿííûé_ãðàäèåíò_40-46);}.cls-61{fill:url(#Áåçûìÿííûé_ãðàäèåíò_40-47);}.cls-62{fill:url(#Áåçûìÿííûé_ãðàäèåíò_40-48);}.cls-63{fill:url(#Áåçûìÿííûé_ãðàäèåíò_40-49);}.cls-64{fill:url(#Áåçûìÿííûé_ãðàäèåíò_40-50);}.cls-65{fill:url(#Áåçûìÿííûé_ãðàäèåíò_40-51);}.cls-66{fill:url(#Áåçûìÿííûé_ãðàäèåíò_40-52);}.cls-67{fill:url(#Áåçûìÿííûé_ãðàäèåíò_40-53);}.cls-68{fill:url(#Áåçûìÿííûé_ãðàäèåíò_40-54);}.cls-69{fill:url(#Áåçûìÿííûé_ãðàäèåíò_40-55);}.cls-70{fill:url(#Áåçûìÿííûé_ãðàäèåíò_40-56);}.cls-71{clip-path:url(#clip-path-9);}.cls-72{fill:url(#Áåçûìÿííûé_ãðàäèåíò_40-58);}.cls-73{fill:url(#Áåçûìÿííûé_ãðàäèåíò_40-59);}.cls-74{fill:url(#Áåçûìÿííûé_ãðàäèåíò_40-60);}.cls-75{fill:url(#Áåçûìÿííûé_ãðàäèåíò_40-61);}.cls-76{fill:url(#Áåçûìÿííûé_ãðàäèåíò_40-62);}.cls-77{fill:url(#Áåçûìÿííûé_ãðàäèåíò_40-63);}.cls-78{fill:url(#Áåçûìÿííûé_ãðàäèåíò_40-64);}.cls-79{fill:url(#Áåçûìÿííûé_ãðàäèåíò_40-65);}.cls-80{fill:url(#Áåçûìÿííûé_ãðàäèåíò_40-66);}.cls-81{fill:url(#Áåçûìÿííûé_ãðàäèåíò_40-67);}.cls-82{fill:url(#Áåçûìÿííûé_ãðàäèåíò_40-68);}.cls-83{fill:url(#Áåçûìÿííûé_ãðàäèåíò_40-69);}.cls-84{fill:url(#Áåçûìÿííûé_ãðàäèåíò_40-70);}.cls-85{fill:url(#Áåçûìÿííûé_ãðàäèåíò_40-71);}.cls-86{fill:url(#Áåçûìÿííûé_ãðàäèåíò_40-72);}.cls-87{fill:url(#Áåçûìÿííûé_ãðàäèåíò_40-73);}.cls-88{fill:url(#Áåçûìÿííûé_ãðàäèåíò_40-74);}.cls-89{fill:url(#Áåçûìÿííûé_ãðàäèåíò_40-75);}.cls-90{fill:url(#Áåçûìÿííûé_ãðàäèåíò_40-76);}.cls-91{fill:url(#Áåçûìÿííûé_ãðàäèåíò_40-77);}.cls-92{fill:url(#Áåçûìÿííûé_ãðàäèåíò_40-78);}.cls-93{fill:url(#Áåçûìÿííûé_ãðàäèåíò_40-79);}.cls-94{fill:url(#Áåçûìÿííûé_ãðàäèåíò_40-80);}.cls-95{fill:url(#Áåçûìÿííûé_ãðàäèåíò_40-81);}.cls-96{fill:url(#Áåçûìÿííûé_ãðàäèåíò_40-82);}.cls-97{fill:url(#Áåçûìÿííûé_ãðàäèåíò_40-83);}.cls-98{fill:url(#Áåçûìÿííûé_ãðàäèåíò_40-84);}.cls-99{fill:url(#Áåçûìÿííûé_ãðàäèåíò_40-85);}.cls-100{fill:url(#Áåçûìÿííûé_ãðàäèåíò_40-86);}.cls-101{fill:url(#Áåçûìÿííûé_ãðàäèåíò_40-87);}.cls-102{fill:url(#Áåçûìÿííûé_ãðàäèåíò_40-88);}.cls-103{fill:url(#Áåçûìÿííûé_ãðàäèåíò_40-89);}.cls-104{fill:url(#Áåçûìÿííûé_ãðàäèåíò_40-90);}.cls-105{fill:url(#Áåçûìÿííûé_ãðàäèåíò_40-91);}.cls-106{fill:url(#Áåçûìÿííûé_ãðàäèåíò_40-92);}.cls-107{fill:url(#Áåçûìÿííûé_ãðàäèåíò_40-93);}.cls-108{fill:url(#Áåçûìÿííûé_ãðàäèåíò_40-94);}.cls-109{fill:url(#Áåçûìÿííûé_ãðàäèåíò_48-2);}</style><linearGradient id="Áåçûìÿííûé_ãðàäèåíò_40" x1="1069.94" y1="73.28" x2="1197.87" y2="263.02" gradientUnits="userSpaceOnUse"><stop offset="0" stop-color="#8204fc"/><stop offset="1" stop-color="#060a7a"/></linearGradient><linearGradient id="Áåçûìÿííûé_ãðàäèåíò_40-2" x1="1096.44" y1="55.41" x2="1224.37" y2="245.15" xlink:href="#Áåçûìÿííûé_ãðàäèåíò_40"/><linearGradient id="Áåçûìÿííûé_ãðàäèåíò_40-3" x1="1106.85" y1="48.39" x2="1234.79" y2="238.12" xlink:href="#Áåçûìÿííûé_ãðàäèåíò_40"/><linearGradient id="Áåçûìÿííûé_ãðàäèåíò_40-4" x1="1129.9" y1="32.85" x2="1257.83" y2="222.59" xlink:href="#Áåçûìÿííûé_ãðàäèåíò_40"/><linearGradient id="Áåçûìÿííûé_ãðàäèåíò_40-5" x1="1122.27" y1="38" x2="1250.2" y2="227.73" xlink:href="#Áåçûìÿííûé_ãðàäèåíò_40"/><clipPath id="clip-path"><rect class="cls-1" x="86.67" y="210.52" width="1326.67" height="658.82"/></clipPath><clipPath id="clip-path-2"><rect class="cls-1" x="94.67" y="210.52" width="1318.67" height="658.82"/></clipPath><clipPath id="clip-path-3"><rect class="cls-1" x="86.67" y="210.52" width="1313.33" height="658.82"/></clipPath><clipPath id="clip-path-4"><rect class="cls-1" x="240" y="590.67" width="888" height="278.85"/></clipPath><linearGradient id="Áåçûìÿííûé_ãðàäèåíò_40-6" x1="1028" y1="101.56" x2="1155.93" y2="291.29" xlink:href="#Áåçûìÿííûé_ãðàäèåíò_40"/><radialGradient id="Áåçûìÿííûé_ãðàäèåíò_48" cx="1266.08" cy="374.93" r="360.19" gradientUnits="userSpaceOnUse"><stop offset="0" stop-color="#8204fc"/><stop offset="1" stop-color="#be88ff"/></radialGradient><clipPath id="clip-path-5"><path class="cls-2" d="M1158.77,194.12l31.91-18.55a114,114,0,0,0-10.5,13.18q-4,6.09-6.85,16.92t-2.85,27.65l-31.91,18.54q0-16.8,2.85-27.65t6.85-16.91A114,114,0,0,1,1158.77,194.12Z"/></clipPath><linearGradient id="Áåçûìÿííûé_ãðàäèåíò_40-8" x1="1083.33" y1="64.25" x2="1211.27" y2="253.98" xlink:href="#Áåçûìÿííûé_ãðàäèåíò_40"/><linearGradient id="Áåçûìÿííûé_ãðàäèåíò_40-9" x1="1074.73" y1="70.05" x2="1202.66" y2="259.79" xlink:href="#Áåçûìÿííûé_ãðàäèåíò_40"/><linearGradient id="Áåçûìÿííûé_ãðàäèåíò_40-10" x1="1071.41" y1="72.29" x2="1199.34" y2="262.02" xlink:href="#Áåçûìÿííûé_ãðàäèåíò_40"/><linearGradient id="Áåçûìÿííûé_ãðàäèåíò_40-11" x1="1068.02" y1="74.58" x2="1195.95" y2="264.31" xlink:href="#Áåçûìÿííûé_ãðàäèåíò_40"/><linearGradient id="Áåçûìÿííûé_ãðàäèåíò_40-12" x1="1064.77" y1="76.77" x2="1192.7" y2="266.5" xlink:href="#Áåçûìÿííûé_ãðàäèåíò_40"/><linearGradient id="Áåçûìÿííûé_ãðàäèåíò_40-13" x1="1062.11" y1="78.56" x2="1190.04" y2="268.3" xlink:href="#Áåçûìÿííûé_ãðàäèåíò_40"/><linearGradient id="Áåçûìÿííûé_ãðàäèåíò_40-14" x1="1059.72" y1="80.17" x2="1187.65" y2="269.9" xlink:href="#Áåçûìÿííûé_ãðàäèåíò_40"/><linearGradient id="Áåçûìÿííûé_ãðàäèåíò_40-15" x1="1057.18" y1="81.88" x2="1185.11" y2="271.62" xlink:href="#Áåçûìÿííûé_ãðàäèåíò_40"/><linearGradient id="Áåçûìÿííûé_ãðàäèåíò_40-16" x1="1054.43" y1="83.74" x2="1182.36" y2="273.47" xlink:href="#Áåçûìÿííûé_ãðàäèåíò_40"/><linearGradient id="Áåçûìÿííûé_ãðàäèåíò_40-17" x1="1051.4" y1="85.78" x2="1179.33" y2="275.52" xlink:href="#Áåçûìÿííûé_ãðàäèåíò_40"/><linearGradient id="Áåçûìÿííûé_ãðàäèåíò_40-18" x1="1049.71" y1="86.92" x2="1177.64" y2="276.66" xlink:href="#Áåçûìÿííûé_ãðàäèåíò_40"/><clipPath id="clip-path-6"><path class="cls-3" d="M1111.41,91.86l31.91-18.54a8.27,8.27,0,0,0-2.44,2.2q-4.67,6.08-4.86,24.34l-31.91,18.55q.21-18.27,4.86-24.34A8.17,8.17,0,0,1,1111.41,91.86Z"/></clipPath><linearGradient id="Áåçûìÿííûé_ãðàäèåíò_40-20" x1="1103.35" y1="50.75" x2="1231.28" y2="240.49" xlink:href="#Áåçûìÿííûé_ãðàäèåíò_40"/><linearGradient id="Áåçûìÿííûé_ãðàäèåíò_40-21" x1="1100.92" y1="52.39" x2="1228.85" y2="242.12" xlink:href="#Áåçûìÿííûé_ãðàäèåíò_40"/><linearGradient id="Áåçûìÿííûé_ãðàäèåíò_40-22" x1="1099.62" y1="53.27" x2="1227.55" y2="243" xlink:href="#Áåçûìÿííûé_ãðàäèåíò_40"/><linearGradient id="Áåçûìÿííûé_ãðàäèåíò_40-23" x1="1098.37" y1="54.11" x2="1226.3" y2="243.85" xlink:href="#Áåçûìÿííûé_ãðàäèåíò_40"/><linearGradient id="Áåçûìÿííûé_ãðàäèåíò_40-24" x1="1097.09" y1="54.98" x2="1225.02" y2="244.71" xlink:href="#Áåçûìÿííûé_ãðàäèåíò_40"/><linearGradient id="Áåçûìÿííûé_ãðàäèåíò_40-25" x1="1095.73" y1="55.9" x2="1223.66" y2="245.63" xlink:href="#Áåçûìÿííûé_ãðàäèåíò_40"/><linearGradient id="Áåçûìÿííûé_ãðàäèåíò_40-26" x1="1094.24" y1="56.9" x2="1222.17" y2="246.63" xlink:href="#Áåçûìÿííûé_ãðàäèåíò_40"/><linearGradient id="Áåçûìÿííûé_ãðàäèåíò_40-27" x1="1092.59" y1="58.01" x2="1220.52" y2="247.74" xlink:href="#Áåçûìÿííûé_ãðàäèåíò_40"/><linearGradient id="Áåçûìÿííûé_ãðàäèåíò_40-28" x1="1090.71" y1="59.28" x2="1218.64" y2="249.01" xlink:href="#Áåçûìÿííûé_ãðàäèåíò_40"/><linearGradient id="Áåçûìÿííûé_ãðàäèåíò_40-29" x1="1088.75" y1="60.6" x2="1216.68" y2="250.33" xlink:href="#Áåçûìÿííûé_ãðàäèåíò_40"/><clipPath id="clip-path-7"><path class="cls-4" d="M1176.54,148.88l31.91-18.54q0,12.53-2.45,20.83a47,47,0,0,1-5.87,13.37,79.44,79.44,0,0,1-9.45,11l-31.91,18.55a78.89,78.89,0,0,0,9.45-11,47.1,47.1,0,0,0,5.87-13.36Q1176.51,161.41,1176.54,148.88Z"/></clipPath><linearGradient id="Áåçûìÿííûé_ãðàäèåíò_40-31" x1="1123.38" y1="37.25" x2="1251.31" y2="226.98" xlink:href="#Áåçûìÿííûé_ãðàäèåíò_40"/><linearGradient id="Áåçûìÿííûé_ãðàäèåíò_40-32" x1="1122.27" y1="38" x2="1250.2" y2="227.73" xlink:href="#Áåçûìÿííûé_ãðàäèåíò_40"/><linearGradient id="Áåçûìÿííûé_ãðàäèåíò_40-33" x1="1120.24" y1="39.36" x2="1248.17" y2="229.1" xlink:href="#Áåçûìÿííûé_ãðàäèåíò_40"/><linearGradient id="Áåçûìÿííûé_ãðàäèåíò_40-34" x1="1118.33" y1="40.66" x2="1246.26" y2="230.39" xlink:href="#Áåçûìÿííûé_ãðàäèåíò_40"/><linearGradient id="Áåçûìÿííûé_ãðàäèåíò_40-35" x1="1116.49" y1="41.89" x2="1244.43" y2="231.62" xlink:href="#Áåçûìÿííûé_ãðàäèåíò_40"/><linearGradient id="Áåçûìÿííûé_ãðàäèåíò_40-36" x1="1114.71" y1="43.09" x2="1242.64" y2="232.83" xlink:href="#Áåçûìÿííûé_ãðàäèåíò_40"/><linearGradient id="Áåçûìÿííûé_ãðàäèåíò_40-37" x1="1112.94" y1="44.29" x2="1240.87" y2="234.02" xlink:href="#Áåçûìÿííûé_ãðàäèåíò_40"/><linearGradient id="Áåçûìÿííûé_ãðàäèåíò_40-38" x1="1110.49" y1="45.94" x2="1238.42" y2="235.68" xlink:href="#Áåçûìÿííûé_ãðàäèåíò_40"/><linearGradient id="Áåçûìÿííûé_ãðàäèåíò_40-39" x1="1107.39" y1="48.03" x2="1235.32" y2="237.76" xlink:href="#Áåçûìÿííûé_ãðàäèåíò_40"/><linearGradient id="Áåçûìÿííûé_ãðàäèåíò_40-40" x1="1104.26" y1="50.14" x2="1232.19" y2="239.88" xlink:href="#Áåçûìÿííûé_ãðàäèåíò_40"/><linearGradient id="Áåçûìÿííûé_ãðàäèåíò_40-41" x1="1096.46" y1="55.4" x2="1224.39" y2="245.14" xlink:href="#Áåçûìÿííûé_ãðàäèåíò_40"/><linearGradient id="Áåçûìÿííûé_ãðàäèåíò_40-42" x1="1123.57" y1="37.12" x2="1251.5" y2="226.86" xlink:href="#Áåçûìÿííûé_ãðàäèåíò_40"/><clipPath id="clip-path-8"><path class="cls-5" d="M1170.29,112.29l31.91-18.54a102.24,102.24,0,0,1,6.25,36.08l-31.91,18.54A102.28,102.28,0,0,0,1170.29,112.29Z"/></clipPath><linearGradient id="Áåçûìÿííûé_ãðàäèåíò_40-44" x1="1136.05" y1="28.71" x2="1263.98" y2="218.44" xlink:href="#Áåçûìÿííûé_ãðàäèåíò_40"/><linearGradient id="Áåçûìÿííûé_ãðàäèåíò_40-45" x1="1135.72" y1="28.93" x2="1263.65" y2="218.66" xlink:href="#Áåçûìÿííûé_ãðàäèåíò_40"/><linearGradient id="Áåçûìÿííûé_ãðàäèåíò_40-46" x1="1135.17" y1="29.3" x2="1263.1" y2="219.03" xlink:href="#Áåçûìÿííûé_ãðàäèåíò_40"/><linearGradient id="Áåçûìÿííûé_ãðàäèåíò_40-47" x1="1134.54" y1="29.72" x2="1262.48" y2="219.45" xlink:href="#Áåçûìÿííûé_ãðàäèåíò_40"/><linearGradient id="Áåçûìÿííûé_ãðàäèåíò_40-48" x1="1133.83" y1="30.2" x2="1261.76" y2="219.93" xlink:href="#Áåçûìÿííûé_ãðàäèåíò_40"/><linearGradient id="Áåçûìÿííûé_ãðàäèåíò_40-49" x1="1133.04" y1="30.73" x2="1260.97" y2="220.47" xlink:href="#Áåçûìÿííûé_ãðàäèåíò_40"/><linearGradient id="Áåçûìÿííûé_ãðàäèåíò_40-50" x1="1132.16" y1="31.33" x2="1260.09" y2="221.06" xlink:href="#Áåçûìÿííûé_ãðàäèåíò_40"/><linearGradient id="Áåçûìÿííûé_ãðàäèåíò_40-51" x1="1131.19" y1="31.98" x2="1259.12" y2="221.71" xlink:href="#Áåçûìÿííûé_ãðàäèåíò_40"/><linearGradient id="Áåçûìÿííûé_ãðàäèåíò_40-52" x1="1130.12" y1="32.7" x2="1258.05" y2="222.44" xlink:href="#Áåçûìÿííûé_ãðàäèåíò_40"/><linearGradient id="Áåçûìÿííûé_ãðàäèåíò_40-53" x1="1128.94" y1="33.5" x2="1256.87" y2="223.23" xlink:href="#Áåçûìÿííûé_ãðàäèåíò_40"/><linearGradient id="Áåçûìÿííûé_ãðàäèåíò_40-54" x1="1127.62" y1="34.39" x2="1255.55" y2="224.12" xlink:href="#Áåçûìÿííûé_ãðàäèåíò_40"/><linearGradient id="Áåçûìÿííûé_ãðàäèåíò_40-55" x1="1126.14" y1="35.39" x2="1254.07" y2="225.12" xlink:href="#Áåçûìÿííûé_ãðàäèåíò_40"/><linearGradient id="Áåçûìÿííûé_ãðàäèåíò_40-56" x1="1124.52" y1="36.48" x2="1252.45" y2="226.21" xlink:href="#Áåçûìÿííûé_ãðàäèåíò_40"/><clipPath id="clip-path-9"><path class="cls-6" d="M1085.14,50.88l31.91-18.54a19.82,19.82,0,0,1,8.41-2.57q11.8-1,29.42,9.17a111,111,0,0,1,29,23.79,101.42,101.42,0,0,1,18.3,31l-31.91,18.54a101.37,101.37,0,0,0-18.3-31,111,111,0,0,0-29-23.8q-17.61-10.17-29.42-9.17A19.82,19.82,0,0,0,1085.14,50.88Z"/></clipPath><linearGradient id="Áåçûìÿííûé_ãðàäèåíò_40-58" x1="1107.5" y1="47.96" x2="1235.43" y2="237.69" xlink:href="#Áåçûìÿííûé_ãðàäèåíò_40"/><linearGradient id="Áåçûìÿííûé_ãðàäèåíò_40-59" x1="1110.07" y1="46.22" x2="1238" y2="235.95" xlink:href="#Áåçûìÿííûé_ãðàäèåíò_40"/><linearGradient id="Áåçûìÿííûé_ãðàäèåíò_40-60" x1="1112.06" y1="44.88" x2="1239.99" y2="234.62" xlink:href="#Áåçûìÿííûé_ãðàäèåíò_40"/><linearGradient id="Áåçûìÿííûé_ãðàäèåíò_40-61" x1="1113.7" y1="43.78" x2="1241.63" y2="233.51" xlink:href="#Áåçûìÿííûé_ãðàäèåíò_40"/><linearGradient id="Áåçûìÿííûé_ãðàäèåíò_40-62" x1="1115.18" y1="42.78" x2="1243.11" y2="232.51" xlink:href="#Áåçûìÿííûé_ãðàäèåíò_40"/><linearGradient id="Áåçûìÿííûé_ãðàäèåíò_40-63" x1="1116.56" y1="41.85" x2="1244.49" y2="231.58" xlink:href="#Áåçûìÿííûé_ãðàäèåíò_40"/><linearGradient id="Áåçûìÿííûé_ãðàäèåíò_40-64" x1="1117.88" y1="40.96" x2="1245.81" y2="230.69" xlink:href="#Áåçûìÿííûé_ãðàäèåíò_40"/><linearGradient id="Áåçûìÿííûé_ãðàäèåíò_40-65" x1="1119.16" y1="40.09" x2="1247.09" y2="229.83" xlink:href="#Áåçûìÿííûé_ãðàäèåíò_40"/><linearGradient id="Áåçûìÿííûé_ãðàäèåíò_40-66" x1="1120.43" y1="39.24" x2="1248.36" y2="228.97" xlink:href="#Áåçûìÿííûé_ãðàäèåíò_40"/><linearGradient id="Áåçûìÿííûé_ãðàäèåíò_40-67" x1="1121.7" y1="38.38" x2="1249.63" y2="228.11" xlink:href="#Áåçûìÿííûé_ãðàäèåíò_40"/><linearGradient id="Áåçûìÿííûé_ãðàäèåíò_40-68" x1="1122.99" y1="37.51" x2="1250.92" y2="227.25" xlink:href="#Áåçûìÿííûé_ãðàäèåíò_40"/><linearGradient id="Áåçûìÿííûé_ãðàäèåíò_40-69" x1="1124.3" y1="36.63" x2="1252.23" y2="226.36" xlink:href="#Áåçûìÿííûé_ãðàäèåíò_40"/><linearGradient id="Áåçûìÿííûé_ãðàäèåíò_40-70" x1="1125.66" y1="35.71" x2="1253.59" y2="225.44" xlink:href="#Áåçûìÿííûé_ãðàäèåíò_40"/><linearGradient id="Áåçûìÿííûé_ãðàäèåíò_40-71" x1="1127.09" y1="34.75" x2="1255.02" y2="224.48" xlink:href="#Áåçûìÿííûé_ãðàäèåíò_40"/><linearGradient id="Áåçûìÿííûé_ãðàäèåíò_40-72" x1="1128.59" y1="33.74" x2="1256.52" y2="223.47" xlink:href="#Áåçûìÿííûé_ãðàäèåíò_40"/><linearGradient id="Áåçûìÿííûé_ãðàäèåíò_40-73" x1="1130.09" y1="32.72" x2="1258.02" y2="222.45" xlink:href="#Áåçûìÿííûé_ãðàäèåíò_40"/><linearGradient id="Áåçûìÿííûé_ãðàäèåíò_40-74" x1="1131.48" y1="31.79" x2="1259.41" y2="221.52" xlink:href="#Áåçûìÿííûé_ãðàäèåíò_40"/><linearGradient id="Áåçûìÿííûé_ãðàäèåíò_40-75" x1="1132.7" y1="30.97" x2="1260.63" y2="220.7" xlink:href="#Áåçûìÿííûé_ãðàäèåíò_40"/><linearGradient id="Áåçûìÿííûé_ãðàäèåíò_40-76" x1="1133.77" y1="30.24" x2="1261.7" y2="219.98" xlink:href="#Áåçûìÿííûé_ãðàäèåíò_40"/><linearGradient id="Áåçûìÿííûé_ãðàäèåíò_40-77" x1="1134.71" y1="29.61" x2="1262.64" y2="219.34" xlink:href="#Áåçûìÿííûé_ãðàäèåíò_40"/><linearGradient id="Áåçûìÿííûé_ãðàäèåíò_40-78" x1="1135.52" y1="29.06" x2="1263.45" y2="218.8" xlink:href="#Áåçûìÿííûé_ãðàäèåíò_40"/><linearGradient id="Áåçûìÿííûé_ãðàäèåíò_40-79" x1="1136.21" y1="28.6" x2="1264.14" y2="218.33" xlink:href="#Áåçûìÿííûé_ãðàäèåíò_40"/><linearGradient id="Áåçûìÿííûé_ãðàäèåíò_40-80" x1="1136.79" y1="28.21" x2="1264.72" y2="217.94" xlink:href="#Áåçûìÿííûé_ãðàäèåíò_40"/><linearGradient id="Áåçûìÿííûé_ãðàäèåíò_40-81" x1="1137.25" y1="27.89" x2="1265.18" y2="217.63" xlink:href="#Áåçûìÿííûé_ãðàäèåíò_40"/><linearGradient id="Áåçûìÿííûé_ãðàäèåíò_40-82" x1="1137.63" y1="27.64" x2="1265.56" y2="217.38" xlink:href="#Áåçûìÿííûé_ãðàäèåíò_40"/><linearGradient id="Áåçûìÿííûé_ãðàäèåíò_40-83" x1="1137.92" y1="27.44" x2="1265.85" y2="217.18" xlink:href="#Áåçûìÿííûé_ãðàäèåíò_40"/><linearGradient id="Áåçûìÿííûé_ãðàäèåíò_40-84" x1="1138.15" y1="27.29" x2="1266.08" y2="217.02" xlink:href="#Áåçûìÿííûé_ãðàäèåíò_40"/><linearGradient id="Áåçûìÿííûé_ãðàäèåíò_40-85" x1="1138.33" y1="27.17" x2="1266.26" y2="216.9" xlink:href="#Áåçûìÿííûé_ãðàäèåíò_40"/><linearGradient id="Áåçûìÿííûé_ãðàäèåíò_40-86" x1="1138.45" y1="27.09" x2="1266.38" y2="216.82" xlink:href="#Áåçûìÿííûé_ãðàäèåíò_40"/><linearGradient id="Áåçûìÿííûé_ãðàäèåíò_40-87" x1="1138.4" y1="27.12" x2="1266.33" y2="216.85" xlink:href="#Áåçûìÿííûé_ãðàäèåíò_40"/><linearGradient id="Áåçûìÿííûé_ãðàäèåíò_40-88" x1="1138.18" y1="27.27" x2="1266.11" y2="217" xlink:href="#Áåçûìÿííûé_ãðàäèåíò_40"/><linearGradient id="Áåçûìÿííûé_ãðàäèåíò_40-89" x1="1137.9" y1="27.46" x2="1265.83" y2="217.19" xlink:href="#Áåçûìÿííûé_ãðàäèåíò_40"/><linearGradient id="Áåçûìÿííûé_ãðàäèåíò_40-90" x1="1137.63" y1="27.64" x2="1265.56" y2="217.37" xlink:href="#Áåçûìÿííûé_ãðàäèåíò_40"/><linearGradient id="Áåçûìÿííûé_ãðàäèåíò_40-91" x1="1137.34" y1="27.84" x2="1265.27" y2="217.57" xlink:href="#Áåçûìÿííûé_ãðàäèåíò_40"/><linearGradient id="Áåçûìÿííûé_ãðàäèåíò_40-92" x1="1137.01" y1="28.06" x2="1264.94" y2="217.79" xlink:href="#Áåçûìÿííûé_ãðàäèåíò_40"/><linearGradient id="Áåçûìÿííûé_ãðàäèåíò_40-93" x1="1136.64" y1="28.31" x2="1264.57" y2="218.04" xlink:href="#Áåçûìÿííûé_ãðàäèåíò_40"/><linearGradient id="Áåçûìÿííûé_ãðàäèåíò_40-94" x1="1136.27" y1="28.56" x2="1264.2" y2="218.29" xlink:href="#Áåçûìÿííûé_ãðàäèåíò_40"/><radialGradient id="Áåçûìÿííûé_ãðàäèåíò_48-2" cx="1266.08" cy="374.93" r="360.19" xlink:href="#Áåçûìÿííûé_ãðàäèåíò_48"/></defs><title>team</title><g class="cls-7"><path class="cls-8" d="M1399,473.44h-85.87c-1.05-5.84-3.74-10.33-7.94-13.3h0c-6.39-76.54-26.4-96.78-28.36-98.57a38.33,38.33,0,0,0-8.42-8.29c-13.55-9.73-26.58-9.62-41.34.13v0s-17.29,6.7-12.85,24.75l-1.51,33.22a26.38,26.38,0,0,0,9.23,21.17l-5.74,24.82c.15-.06.27-.14.42-.2a16.38,16.38,0,0,0-3.5,2,20.74,20.74,0,0,0-7.4,9.9l-23.51,63.68-16.11,1.68a11.82,11.82,0,0,0-3.2-1.49l-14-3.95-4.48-35a2.54,2.54,0,0,0-2.46-2.18h-59.48a1.88,1.88,0,0,0-1.9,2.18l5.81,45.53a4,4,0,0,0-3.45,3.92v.51a4,4,0,0,0,4.53,4l.1.84-.59-.05a4.35,4.35,0,0,0-.74,8.67,3.84,3.84,0,0,0-1.77,3.14,4,4,0,0,0,2.53,3.58,3.66,3.66,0,0,0-1.06,2.7v.12a3.71,3.71,0,0,0,3.66,3.59H1064l.67-6.38a28.39,28.39,0,0,0,8.82-26L1069.89,515l4.39-41.58h-11l-4.69-29.77a29.5,29.5,0,0,0-.87-3.45h118.59a15.78,15.78,0,0,0,15.78-15.77V386.09a15.5,15.5,0,0,0-.29-2.82c0-.3-.13-.58-.2-.87s-.11-.58-.19-.85a.79.79,0,0,0,0,.09,15.72,15.72,0,0,0-15.06-11.32h-140a15.77,15.77,0,0,0-15.78,15.77V415c-6.26-1.88-13.35-3.73-21.34-5.39a.09.09,0,0,0,0-.05.75.75,0,0,0-.79-.54c-2.61-4.95-8-9.31-15.37-12.6a16.65,16.65,0,0,0,2.31-8.46V351.57a18,18,0,0,0,1.9-13.23s14-19-1.9-31.86V259.23a16.7,16.7,0,0,0-16.7-16.69H800.78a16.7,16.7,0,0,0-16.7,16.69v128.7a16.7,16.7,0,0,0,16.7,16.7H903.89a19.39,19.39,0,0,0-3.83,5.72c-18.47,4.49-31.49,10.24-40.29,13.9a6.12,6.12,0,0,0-1,.53,28.68,28.68,0,0,0-14.92,18l-.21.67H735l-.25,0a15.64,15.64,0,0,0-8.75,2.82l-.44-.1c-8.46-3.89-19.31-7.06-30.79,7.18h0l-13.52,17.52-11.65,91.2a24,24,0,0,0,5.1-5.93l42.77-75.74,1.66.56-.16,38.19a15.78,15.78,0,0,0,15.78,15.77h80.48l-.36,1.16a28.46,28.46,0,0,0,17.6,34.39H667.32a3.41,3.41,0,0,0,1.47-2.3L681.64,467.5a2.54,2.54,0,0,0-2.57-2.95H646.13L629.71,432a26.63,26.63,0,0,0-15.91-14.21l-.16-.08a219.53,219.53,0,0,0-50.94-13.87l1.82-18.29a29.2,29.2,0,0,0,13.25-21.66l.4-4a11.73,11.73,0,0,0,6.32-10.41c0-4.76-1.84-8.84-4.52-10.78a8,8,0,0,1,.95.82A37.55,37.55,0,0,0,577.68,302H693.09a15.77,15.77,0,0,0,15.78-15.77l.17-40.78h.08V226.29a15.77,15.77,0,0,0-15.78-15.77H431.73A15.78,15.78,0,0,0,416,226.29v.31l-.25,59.64A15.79,15.79,0,0,0,431.49,302h72.79a23.13,23.13,0,0,0,8.47,5.4,37.46,37.46,0,0,0-.48,31.34c-2.64,1.95-4.47,6-4.46,10.73a11.65,11.65,0,0,0,3,7.8,15.7,15.7,0,0,0-3.38-.38H410.63a15.77,15.77,0,0,0-15.78,15.77V411a15.77,15.77,0,0,0,15.78,15.77h30.44a27.66,27.66,0,0,0-4.95,8.32c-3.72,10-7,20.06-10.35,30.14-.87,2.72-1.7,5.46-2.56,8.19H423l0,.4q-1.68,5.34-3.33,10.7c-5.05-.37-10.18-.74-21-1.17a8.3,8.3,0,0,0,4.41-4.62,2.1,2.1,0,0,0-2.09-2.85l-22.64,1.41a12.17,12.17,0,0,0-6.53,2.38l-5.63,4.16a57,57,0,0,0-2.19-7.53c-4.26-11.72,1.28-19.39,3.23-34.14,1.07-8-2.29-18.36-6.61-28.4-7.13-16.56,5.87-31.06-1.1-47.26a39.86,39.86,0,0,0-18.86-19.66V301.45A15.78,15.78,0,0,0,325,285.68H153.06a15.76,15.76,0,0,0-15.77,15.77V419.6a15.77,15.77,0,0,0,15.77,15.77h65.41c-8.65,10.82-9.42,25.91-11.43,38.8a28.08,28.08,0,0,0-6.18-.72H87.56l39.7,241V868.3h20.3V730.52h53.75V868.3h20.3V730.52H286L263.81,868.3h12.34L298.8,730.52h18V868.3h20.29V730.52h13.31c-.28,26.36.59,53.67,1.27,82.55h1.71c-.11,7.91-.51,15.36-1.62,20.52h0s22.35,8.52,37.45-6.86c-15.1,15.38-37.45,6.86-37.45,6.86s-4.07,10.59-3.75,25.93a.78.78,0,0,0-.78.78.79.79,0,0,0,.79.79h0c.08,2.31.28,4.72.6,7.21H443.5a12,12,0,0,0-1.16-7.34.76.76,0,0,0,.46-.65.79.79,0,0,0-.79-.79h-.52c-1.56-2.33-4.19-4.68-8.66-6.44-6.35-2.5-13.67-4.7-21.74-9.12V716.6a42.19,42.19,0,0,0-1.67-11.73l1-6.36c.05,0,.07.06.12.07h.12a.78.78,0,0,0,.78-.66l.49-3.09c9.13,36.16,21.84,72.54,36.59,108.78V868.3H551.84a12.06,12.06,0,0,0-1.36-7.74c0-.09.11-.16.11-.26a.79.79,0,0,0-.74-.77c-1.55-2.33-4.19-4.7-8.68-6.46-7.2-2.83-15.64-5.27-25-11V730.52H604.9v7.29c-8.66,20.83-15.13,38.62-18.25,48.65L604.9,798.8l-12.75-8.62a134.93,134.93,0,0,1-20,32.89l.29.15c-.81-.42-1.57-.83-2.36-1.15-4.33,7.61-13.63,25.32-13.73,35.75,0,1.92,0,3.89-.06,6a3.87,3.87,0,0,0,3.85,3.88l44.73.38v.25h20.29v-.08l15.08.13a3.85,3.85,0,0,0,3.81-4.43c-1.43-8.75-6.36-15.58-12.77-21.43a43.09,43.09,0,0,1-6.12-6.81V806.51L650,766.17c.75,1.48,1.5,2.9,2.26,4.35V868.3h20.29V806.76c.34.55.69,1.16,1,1.68l15.41-3.92-10.71,2.72c2.56,5.84,5.75,13.56,8.18,20.89.6.29,1.23.57,1.89.85-.92-.39-1.81-.79-2.62-1.2-3.41,10.48-3.89,22.46-3.69,30.68.06,2.49.18,4.64.3,6.29a3.83,3.83,0,0,0,3.83,3.55H931a2.1,2.1,0,0,0,2.11-2.09v-4.45a.79.79,0,0,0,0-1.58h0c0-18.63-.49-39-5.72-40.49-1.51-.43-2,.22-2.61,1.11.15-2.88.33-6.18.53-9.72H933c4.22-26.05,8.16-53.81,11.37-80.56h36.82V842.86a156.73,156.73,0,0,1-18.67,10.48c-11.58,5.59-9.57,15-9.57,15h50.85c0,.1,0,.16,0,.17a.78.78,0,0,0,.77.62h.16a.78.78,0,0,0,.58-.78h104.36V825.4h10.46L1130,793h.24a.79.79,0,0,0,.79-.79.76.76,0,0,0-.58-.7l18.59-61h14.39V868.29h20.3V730.51h27.77l22.66,137.78h12.33l-22.17-137.78h54.56V868.29h20.29V730.51h61.72V868.29h12.33V714.43l39.71-241Zm-165.21-20.11h0Zm21,131.35-.54,0Zm-3.92-.32-.65-.06Zm-23.73-129.83.76-.14ZM1218,584.39a77.12,77.12,0,0,0-5.78,7.32l-10.14.7-1.28-8H1218Zm82-127a25.07,25.07,0,0,0-3.15-.91A23.08,23.08,0,0,1,1300,457.42Zm2.38,1c-.37-.18-.74-.38-1.13-.55C1301.6,458.06,1302,458.26,1302.34,458.44Zm-18-4.35.21,0Zm5.53,1,.7.13Zm-38.54-72.7c2.62.18,5.13.28,7.46.32-3.53-.05-7.48-.25-11.57-.71Q1249.27,382.25,1251.3,382.4Zm-12.18-1.75c.57.13,1.13.25,1.7.36.72.15,1.46.28,2.19.41,1.4.23,2.79.42,4.18.59a63.61,63.61,0,0,1-12.59-2.62c.26.08.51.18.77.27C1236.6,380,1237.86,380.35,1239.12,380.65Zm-5.88-1.77c-1-.35-1.91-.71-2.83-1.12l1,.45C1232,378.45,1232.65,378.66,1233.24,378.88ZM1225.36,435l0-.05Zm-134.92,135.4.7-.16c.08,0,.14-.07.22-.09a2.48,2.48,0,0,0,1.15.34h-2.9A4,4,0,0,0,1090.44,570.39Zm97,14,1.46,8.84c-.78,0-1.55,0-2.34,0L1081,600.54a44.45,44.45,0,0,0-20.89,6.8l2.42-22.94h124.91ZM836,276.94a14.29,14.29,0,0,1-.28,2.8A14.29,14.29,0,0,0,836,276.94ZM889.16,606.3c-.42-.09-.83-.16-1.25-.27C888.33,606.14,888.74,606.21,889.16,606.3Zm-1.35-.29c-1.2-.31-2.43-.7-3.68-1.15C885.38,605.31,886.61,605.7,887.81,606Zm-47.68,73c-4.94,0-8.35,2.65-10.68,7.09-1.36-4.79-2.72-9.5-4.1-14.09a.71.71,0,0,0,.34-.13.79.79,0,0,0,.22-.49l55.81,6.06-.16,1.55H840.13Zm5,51.51h27V835.88a27.1,27.1,0,0,1-6.43,8.11c-.47.41-.9.83-1.32,1.25-.42-13.25-1.69-24.46-5.52-25.56a3.23,3.23,0,0,0-3.07.68,6.17,6.17,0,0,1,.75-.47,78.31,78.31,0,0,1-3-8.12l7.22-.15c-5.36-21.8-10.54-43.7-15.71-64.9Zm7.26,92.2a2.68,2.68,0,0,1-.34.13A2.68,2.68,0,0,0,852.36,822.71Zm-1.57.51-.5.11Zm-30-7.62h0Zm171.49-99h0Zm9.18,13.91h17.46l-17.46,77.33ZM808.22,276.94a13.57,13.57,0,0,0,.28,2.8A13.57,13.57,0,0,1,808.22,276.94ZM397.27,589.24c-.38-.08-.76-.22-1.15-.28-1.35-.2-41.68,1-74.37,2l1.08-6.59H434.76l.67,6.41a27.91,27.91,0,0,0-12.83-2.52S412.68,588.68,397.27,589.24ZM257.71,578.05h0Zm3.9-.08h0Zm-8.22.12h0Zm29.1-8.25c.31.23.65.43,1,.64h-1.24Zm43.06-58.58-3.24-3.81c2.62.32,5.16.61,7.61.89Zm-73.44-57.84c1.28-.11,2.57-.18,3.87-.18Q254,453.26,252.11,453.42Zm-17.62,5.16c.47-.24.93-.49,1.41-.72C235.42,458.09,235,458.34,234.49,458.58Zm3.22-1.54,1.66-.68Zm3.39-1.31c.63-.21,1.25-.4,1.89-.59C242.35,455.33,241.73,455.52,241.1,455.73Zm3.56-1.06c.69-.17,1.4-.32,2.11-.46C246.06,454.35,245.35,454.5,244.66,454.67Zm3.67-.77c.82-.14,1.64-.24,2.47-.33C250,453.66,249.15,453.76,248.33,453.9ZM229,462l.46-.34Zm2.53-1.68c.36-.23.71-.46,1.07-.67C232.23,459.84,231.88,460.07,231.52,460.3Zm-16,16.91.07-.11Zm61.22,201.15,18.16-3.06-.6,3.69H269A47.68,47.68,0,0,0,276.72,678.36ZM281,592.27s0,0,0-.06a.79.79,0,0,0-.87-.7l-.14,0c-.63-2.2-1.42-4.68-2.23-7.13h31.73l-1.13,7C294.48,591.83,283.74,592.18,281,592.27Zm21.56-21.79c.51-.34,1.05-.62,1.54-1l11.46-9.39a.75.75,0,0,0,.61.29.81.81,0,0,0,.5-.18l.21-.17,6.53,6.94,1.25,1.35a17.34,17.34,0,0,0,2.61,2.18ZM433,570.24h.24l0,.25H423.1C426,570.48,429.38,570.39,433,570.24Zm62.83,255.15a109,109,0,0,1-3.05-12.33h.93l-16.46-82.55h18.58Zm0,2.79v.05c-8.68,7.65-19.24,8.26-26.65,7.39C476.6,836.48,487.17,835.84,495.85,828.18ZM505,716.6h0ZM514,337.82a6.75,6.75,0,0,0-.94.45A5.78,5.78,0,0,1,514,337.82Zm1.79-.33a5.59,5.59,0,0,0-1.36.21A5.59,5.59,0,0,1,515.76,337.49ZM381,516.16a87,87,0,0,0,17.12-1.47l.23.06s2.5-.54,5.83-1.29h0c3.26-.73,7.31-1.65,10.66-2.47l-9.91,31.07a21.45,21.45,0,0,0-1.77,9.27c-.2,7.15,6.07,19.14,19.9,19.15H347.2a17.19,17.19,0,0,0,4.91-5.32ZM307.28,679l1-6,46.16-7.77c-.59,4.55-1.08,9.13-1.52,13.71H307.28Zm82.36,134.15h1.17v15c-.51-.52-1-1-1.51-1.57a1.42,1.42,0,0,1-.13.12A102,102,0,0,1,389.64,813.15ZM578,825l.52,0Zm-4.51-1.31.34.16Zm1.36.59.25.1Zm1.63.5.29.05Zm3.32.22.55,0Zm5.23-1.27c-.12,0-.23.11-.35.15Zm115.65,8.07c.52,0,1.05,0,1.58,0C701.7,831.87,701.18,831.84,700.65,831.82ZM688.43,829c.61.25,1.24.5,1.89.73C689.67,829.53,689,829.28,688.43,829Zm2.19.83c.61.21,1.23.42,1.87.6C691.85,830.27,691.23,830.07,690.62,829.86Zm2.35.73c.59.17,1.19.32,1.81.46C694.16,830.91,693.57,830.76,693,830.59Zm2.47.59c.58.12,1.15.23,1.74.31C696.59,831.41,696,831.3,695.44,831.18Zm2.57.42c.55.07,1.09.13,1.66.18C699.1,831.73,698.56,831.67,698,831.6Zm24.25-8.37c.38-.37.76-.7,1.12-1.1C723,822.53,722.63,822.86,722.26,823.23Zm-18.91,8.58c.5,0,1,0,1.51-.09C704.35,831.78,703.85,831.79,703.35,831.81Zm2.73-.25c.48-.07,1-.13,1.45-.23C707,831.43,706.56,831.49,706.08,831.56Zm2.75-.54c.46-.11.93-.21,1.39-.35C709.76,830.81,709.29,830.91,708.83,831Zm2.74-.84c.45-.16.9-.3,1.34-.49C712.47,829.88,712,830,711.57,830.18ZM714.3,829c.43-.22.87-.41,1.3-.65C715.17,828.61,714.73,828.8,714.3,829ZM717,827.5c.43-.27.85-.51,1.27-.81C717.83,827,717.41,827.23,717,827.5Zm2.66-1.91c.4-.32.81-.62,1.21-1C720.45,825,720,825.27,719.64,825.59Zm6.19-6.38,0,0c-5-5.68-8.11-11.58-11.38-21.19l1.15-.3-28.37-92.3c23.88-39,45.29-74,45.56-74.68a25,25,0,0,0,1.47-6.21,21.58,21.58,0,0,0,.12-5c-1.63-17.6-18.13-30.69-37.51-29.79l-55.17,2.89a26.82,26.82,0,0,0-11.94-1.82l-19.94,1.57c-.15-2.65-.32-5.32-.48-8h261v.25l.35,13.12v0l-97.07-.22c-19.73.17-34.75,18.33-32,38.66,0,.16.07.31.09.47a35.59,35.59,0,0,0,2.51,10l65.46,166,15.14-.31-7.18.15c.31,1,.64,2.06,1,3.33-3.86.63-7.42,2.62-9.18,6.34-4.24,8.94-13.74,15.47-28,21.84a19.6,19.6,0,0,0-8,6.4c-1.6-.72-3.25-1.48-5-2.33C753.13,840.63,733.37,828.63,725.83,819.21ZM870.61,595.88v0Zm0,1a.31.31,0,0,0,0,.09A.31.31,0,0,1,870.63,596.93ZM785.94,860.17a12.52,12.52,0,0,0-1.16-2A13,13,0,0,1,785.94,860.17Zm-1.46-2.43c-.2-.27-.43-.53-.67-.8C784.05,857.21,784.28,857.47,784.48,857.74Zm-1.34-1.51c-.22-.21-.43-.43-.67-.64C782.71,855.8,782.92,856,783.14,856.23Zm-2.3-1.93c-.19-.14-.42-.28-.63-.42Zm-2.28-1.44-.75-.41Zm6.27,15.06,0,0Zm1.25-.94.06-.08A.24.24,0,0,1,786.08,867Zm.78-1.38a1.31,1.31,0,0,0,.06-.27A1.31,1.31,0,0,1,786.86,865.6Zm.17-.8a4,4,0,0,0,0-.85,14.48,14.48,0,0,0-.49-2.2A14.48,14.48,0,0,1,787,864,4,4,0,0,1,787,864.8Zm107-48,.18,0Zm5.35,1.39a.51.51,0,0,1,.15.07A.51.51,0,0,0,899.36,818.23Zm2.1.94.56.31C901.84,819.38,901.66,819.27,901.46,819.17Zm1.85,1.12.56.41Zm1.55,1.32c.14.14.29.28.41.42C905.15,821.89,905,821.75,904.86,821.61Zm14.28,2.17a9.66,9.66,0,0,0,1.26-.08A9.66,9.66,0,0,1,919.14,823.78Zm1.63-.13c.24,0,.46-.08.67-.14C921.23,823.57,921,823.6,920.77,823.65Zm1-.24.5-.19Zm.8-.34a3.44,3.44,0,0,0,.38-.22A3.44,3.44,0,0,1,922.6,823.07Zm.64-.39a4,4,0,0,0,.31-.27A4,4,0,0,1,923.24,822.68Zm.5-.45.29-.31Zm.6-.72.12-.18Zm121.28,10.62a.8.8,0,0,0-1.09.2,29,29,0,0,1-2.12,2.6V825.4h5.88a.77.77,0,0,0,.57.77h.17a.78.78,0,0,0,.77-.61l0-.17h.18C1049.19,826.83,1047.81,829,1045.62,832.13ZM1164.74,679l0,0,9.57,0Z"/></g><g class="cls-9"><path class="cls-8" d="M1412.94,473.44l-39.71,241V868.3H1360.9V730.52H1183.74V868.3h-12.33V716.6H1359L1399,473.45h13.92ZM824.81,868.29H845.1V730.51h27V868.29h20.29V730.51h88.75V868.29h20.29V730.52h27V868.3h13.92V716.6H824.81Zm221.86-371.8L1027.59,679h-20c-12.52,0-15.32,16.83-15.32,37.6h56.51V715l25.48-241.52h-9.9C1055.66,473.44,1048.2,483.16,1046.67,496.49ZM295.78,679H174.89L145.23,496.49a28,28,0,0,0-27.52-23.05H95.57L135.92,716.6h-2.28V868.3h13.92V716.6H329.09C329.09,695.83,314.17,679,295.78,679ZM454.91,868.29h13.91V730.51h27V868.29h20.3V730.51H604.9V868.29h20.29V730.51h27V868.29h20.29V716.59H454.91V868.29ZM505,716.6c0-20.77-2.81-37.6-15.33-37.6h-20L450.66,496.49c-1.53-13.33-9-23.05-17.71-23.05h-9.9L448.54,715v1.63ZM860,534.93a15.78,15.78,0,0,0,15.78-15.77l.25-60a15.77,15.77,0,0,0-15.78-15.77H735a15.77,15.77,0,0,0-15.77,15.77l-.25,60a15.78,15.78,0,0,0,15.77,15.77H860M325,435.36a15.77,15.77,0,0,0,15.78-15.77V301.44A15.77,15.77,0,0,0,325,285.67H153.07a15.78,15.78,0,0,0-15.78,15.77V419.59a15.78,15.78,0,0,0,15.78,15.77H325M836,276.94a13.91,13.91,0,1,0-13.91,13.91A13.9,13.9,0,0,0,836,276.94m123.61,31.54a3.15,3.15,0,0,0-3.16-3.15H814a3.16,3.16,0,0,0,0,6.31H956.49A3.17,3.17,0,0,0,959.65,308.48Zm0,31.54a3.15,3.15,0,0,0-3.16-3.15H814a3.16,3.16,0,0,0,0,6.31H956.49A3.16,3.16,0,0,0,959.65,340Zm0,31.54a3.15,3.15,0,0,0-3.16-3.15H814a3.15,3.15,0,0,0,0,6.3H956.49A3.16,3.16,0,0,0,959.65,371.56ZM693.1,302a15.79,15.79,0,0,0,15.78-15.78l.25-60a15.78,15.78,0,0,0-15.78-15.77H431.74A15.77,15.77,0,0,0,416,226.29l-.26,60A15.79,15.79,0,0,0,431.49,302H693.1m1.63-74a5.28,5.28,0,1,0-5.28,5.28,5.27,5.27,0,0,0,5.28-5.28m481.63,142.33h-140a15.78,15.78,0,0,0-15.78,15.77v38.36a15.77,15.77,0,0,0,15.78,15.77h140a15.78,15.78,0,0,0,15.78-15.77V386.09a15.79,15.79,0,0,0-15.78-15.77M327.27,303.14a5.28,5.28,0,1,0-5.28,5.28,5.28,5.28,0,0,0,5.28-5.28m110.59,75.63a1.56,1.56,0,0,0-2.22,0l-14,14,14,14a1.55,1.55,0,0,0,2.22,0,1.57,1.57,0,0,0,0-2.23l-11.73-11.73L437.86,381A1.56,1.56,0,0,0,437.86,378.77Zm44.57,0A1.57,1.57,0,1,0,480.2,381l11.74,11.73L480.2,404.45a1.59,1.59,0,0,0,1.12,2.7,1.55,1.55,0,0,0,1.11-.47l14-14Zm-17.35.19a1.58,1.58,0,0,0-2.07.83L452.17,405A1.57,1.57,0,0,0,453,407a1.72,1.72,0,0,0,.62.13,1.58,1.58,0,0,0,1.45-1L465.9,381A1.59,1.59,0,0,0,465.08,379Z"/></g><g class="cls-10"><path class="cls-11" d="M507.44,356.9H410.63a15.78,15.78,0,0,0-15.78,15.77V411a15.78,15.78,0,0,0,15.78,15.77h96.81A15.77,15.77,0,0,0,523.21,411V372.67A15.77,15.77,0,0,0,507.44,356.9Zm-69.58,47.55a1.57,1.57,0,0,1,0,2.23,1.57,1.57,0,0,1-2.22,0l-14-14,14-14a1.57,1.57,0,0,1,2.22,2.23l-11.73,11.73Zm28-23.42-10.84,25.16a1.57,1.57,0,0,1-1.45.95A1.53,1.53,0,0,1,453,407a1.57,1.57,0,0,1-.82-2.07L463,379.78A1.57,1.57,0,1,1,465.9,381Zm16.53,25.65a1.54,1.54,0,0,1-1.11.46,1.58,1.58,0,0,1-1.11-2.69l11.73-11.73L480.21,381a1.57,1.57,0,0,1,0-2.23,1.59,1.59,0,0,1,2.23,0l14,14Zm236.76,71.7V459.2A15.76,15.76,0,0,1,735,443.43H860.21A15.77,15.77,0,0,1,876,459.2v19.18Zm117.29,31.19H764.13a3.16,3.16,0,0,1,0-6.31h72.35a3.16,3.16,0,1,1,0,6.31ZM270.42,412.19H207.64a3.15,3.15,0,1,1,0-6.3h62.78a3.15,3.15,0,0,1,0,6.3Zm46.29-29.36H161.34a3.16,3.16,0,1,1,0-6.31H316.71a3.16,3.16,0,1,1,0,6.31Zm0-31.16H161.34a3.16,3.16,0,1,1,0-6.31H316.71a3.16,3.16,0,1,1,0,6.31ZM968.64,242.54H800.79a16.7,16.7,0,0,0-16.71,16.69v128.7a16.71,16.71,0,0,0,16.71,16.7H968.64a16.7,16.7,0,0,0,16.7-16.7V259.23A16.68,16.68,0,0,0,968.64,242.54ZM822.13,263a13.91,13.91,0,1,1-13.91,13.9A13.9,13.9,0,0,1,822.13,263ZM956.49,374.71H814a3.15,3.15,0,1,1,0-6.3H956.49a3.15,3.15,0,1,1,0,6.3Zm0-31.53H814a3.16,3.16,0,1,1,0-6.31H956.49a3.16,3.16,0,1,1,0,6.31Zm0-31.54H814a3.16,3.16,0,1,1,0-6.31H956.49a3.16,3.16,0,1,1,0,6.31ZM693.35,210.52H431.74A15.77,15.77,0,0,0,416,226.29v19.18H709.13V226.29A15.78,15.78,0,0,0,693.35,210.52Zm-3.9,22.75a5.28,5.28,0,1,1,5.28-5.28A5.27,5.27,0,0,1,689.45,233.27Zm-24.56,43.38H465.65a3.16,3.16,0,1,1,0-6.31H664.89a3.16,3.16,0,0,1,0,6.31Zm527.24,147.8a15.77,15.77,0,0,1-15.77,15.77h-140a15.77,15.77,0,0,1-15.77-15.77v-4.74c4.55,8.22,18.93,16.06,32.49-3.33,9.06-13,14.67-24.37,30.51-21.63,16.13,2.79,19.82,16.33,37.1,16.33s21.59-22,35.95-22c9.3,0,14.13,3,21.15,3.15,5.83.09,10.76-3.92,13.72-10.67a15.54,15.54,0,0,1,.67,4.54v38.36M325,285.67H153.07a15.77,15.77,0,0,0-15.78,15.77v19.17H340.76V301.44A15.77,15.77,0,0,0,325,285.67Zm-3,22.75a5.28,5.28,0,1,1,5.28-5.27A5.28,5.28,0,0,1,322,308.42Zm-204.28,165h83.15a28,28,0,0,1,27.53,23.05L258.05,679H174.89L145.23,496.49A28,28,0,0,0,117.71,473.44ZM377.78,679h-82c18.39,0,33.31,16.83,33.31,37.6H135.92L95.57,473.44h-8l39.7,241V868.3H139.6V730.52h61.71V868.3h20.3V730.52h95.14V868.3h20.3V730.52H390.8V868.3h20.29V716.6C411.1,695.83,396.18,679,377.78,679Zm901.11,51.51V868.29h20.29V730.51ZM1171.41,716.6H1359L1399,473.45h-99.39a27.94,27.94,0,0,0-27.52,23L1242.45,679H1122.71c-18.4,0-33.32,16.83-33.32,37.6V868.3h20.3V730.52h53.75V868.3h8V716.6ZM1007.61,679h20l19.08-182.51c1.53-13.33,9-23.05,17.71-23.05h-146c-8.72,0-16.18,9.72-17.71,23.05L881.56,679H840.14c-12.53,0-15.33,16.84-15.33,37.61H992.3C992.29,695.83,995.09,679,1007.61,679ZM448.53,716.6V868.3h9.18V730.52h38.14V868.3H505V716.6ZM657.19,679H615.76L596.68,496.49c-1.52-13.33-9-23.05-17.7-23.05H433c8.71,0,16.18,9.72,17.7,23.05L469.73,679h20c12.52,0,15.32,16.83,15.32,37.6H672.51C672.52,695.83,669.71,679,657.19,679Zm-5,189.29h9.18V730.51h-9.18Z"/></g><path class="cls-12" d="M933.15,866.2a2.11,2.11,0,0,1-2.11,2.09H783.19A3.84,3.84,0,0,0,787,864c-.58-4.37-2.87-8.9-12-12.84-.53-.22-1.09-.48-1.64-.72a19.6,19.6,0,0,1,8-6.4c14.3-6.36,23.81-12.9,28-21.84,4.45-9.43,20.46-7.86,23.67-.82,5.65-3.63,8.39,2.19,15.15,2.19s7-4.87,10.62-3.83c3.83,1.09,5.1,12.31,5.52,25.55.42-.42.85-.84,1.33-1.25,7.55-6.58,8-12.9,12.26-21.84,4.46-9.43,25-5.74,28.24,1.31,5.65-3.64,6.17.32,12.93.32s4.64-5.13,8.28-4.09C933.22,821.34,933.16,846.23,933.15,866.2ZM256,453.25A46.24,46.24,0,0,0,210.73,490l-18.83,75c-2.14,6.08,1.77,9.89,8.17,10.62,18,2.08,50.37,3.42,74.19,1.87,3.45-.22,6.27-2.94,7.62-6.13L289.2,554c1.85-4.37,3.49-8.8,5-13.29l1.19,1.27,31.44-29.24-30.54-35.88A46.15,46.15,0,0,0,256,453.25ZM613.8,417.83l-.16-.08c-52.86-21.2-103.24-21-156.74-.24a27.88,27.88,0,0,0-20.78,17.61c-3.72,10-7,20.06-10.35,30.14-2.73,8.56-5.43,17.14-8,25.75l44.79,12.54c2.36,19,4.14,36.21,4.14,44.78,0,13.59-.13,34.21-.21,50.62-.2,5.12.2,13.6.83,25.31,25.22,6.49,34.24-24.79,70.48-26.22l72-5.66c-.91-15.51-2-31.72-2-44,0-8.79,1.34-26.61,3.18-46.25l42.57-22.86L629.71,432A26.63,26.63,0,0,0,613.8,417.83Zm444.84,25.84a28.74,28.74,0,0,0-20.45-22.62,240.9,240.9,0,0,0-39.52-11.58c-5.45-11.23-25.36-19.54-49.1-19.54-24.36,0-44.71,8.76-49.51,20.43-18.46,4.49-31.49,10.24-40.29,13.9a5.73,5.73,0,0,0-1,.52,28.65,28.65,0,0,0-14.91,18l-29,93.33A28.47,28.47,0,0,0,869,553.47c1.31,26,1.63,44.31,1.63,44.31,8.41,5.82,15.77,8.44,22.09,9.12a33.18,33.18,0,0,1,28.08-12.79l0-.06,28.54,2.6a113.75,113.75,0,0,1,47.68,15.46c8.31,4.95,15.68,9.94,21.7,13a7.82,7.82,0,0,0,11.39-6.79v-.07c.27-13.49,1.09-30.6,2.47-49.73a28.44,28.44,0,0,0,40.89-30.36Zm238.17,12.84c-32.62-6.86-48-6.65-76.15-.69a20.08,20.08,0,0,0-4,1.32h0a16.46,16.46,0,0,0-3.51,2,20.71,20.71,0,0,0-7.39,9.9l-23.52,63.68L1112.35,540a14.82,14.82,0,0,0,1.33,29.56l51.2.7a14.58,14.58,0,0,0,4.64.88l52.67.72c.92,1.87,1.87,3.72,2.89,5.55,4.51,8.07,69.07,12.21,73.66,0,9.42-25,15-61.93,15-98.24C1313.7,466.73,1307.69,458.8,1296.81,456.51ZM1149,570.48a1.88,1.88,0,0,0,1.9-2.18l-9.5-74.35a2.54,2.54,0,0,0-2.46-2.18h-56.49a1.88,1.88,0,0,0-1.9,2.18l9.49,74.35a2.56,2.56,0,0,0,2.46,2.18H1149"/><path class="cls-13" d="M541.61,570.17l-.23.16A13.62,13.62,0,0,1,534,572.8a61.08,61.08,0,0,1-11.25-.69,30.81,30.81,0,0,1-16.12-8h-.06l-.47.05-.19,0-.61.07-.44,0-1,.11h0l-1.33.14h-.08l-1.52.16h-.08l-1.56.15-.89.1-1,.09-.81.09-11.42,1.12-.23,0-2.35.22-.58.05-2.36.23-.57,0-2.57.24-.39,0-2.69.24-.41,0-2.81.24-.19,0c-7.22.62-14.78,1.23-22,1.71h-.17l-2.9.19-.23,0-2.76.16-.35,0L439,570l-.32,0-2.61.13a1.1,1.1,0,0,0-.26,0l-2.58.1H433c-3.68.15-7.06.24-10,.24-13.84,0-20.12-12-19.91-19.15a21.47,21.47,0,0,1,1.77-9.28L414.82,511c-3.35.82-7.4,1.74-10.66,2.47s-5.83,1.28-5.83,1.28l-.24,0A87.59,87.59,0,0,1,381,516.15l-28.88,49a17.29,17.29,0,0,1-23.67,6.12,17.56,17.56,0,0,1-3.76-3L323.41,567l-7.07-7.52-12.24,10A17.51,17.51,0,0,1,279.49,567a16.54,16.54,0,0,1-1.11-1.53l-.75-1.14L257.22,533l32.38-20.83,9.66,16.58,59.83-39.85.14-.07a19,19,0,0,1,3.3-2.2l9.39-7a12.34,12.34,0,0,1,6.53-2.38l22.64-1.4a2.1,2.1,0,0,1,2.1,2.84,8.37,8.37,0,0,1-4.42,4.63c12.79.51,17.62.93,23.79,1.35,4.29.31,5.93,3.21,5.39,5.65,3.61.41,5.17,2.73,5,4.9l29.78,8.58-9.37,31.8,57.58,6a38.74,38.74,0,0,1,4.55.56c2,.19,3.89.47,5.69.74,4.68.71,10,1.66,15.15,2.66A13.63,13.63,0,0,1,541.61,570.17ZM774.43,474c-6.19-3.78-10.6-6.17-26.65-12.78.91.09,1.75.17,2.48.26,5.78.71,3.53-8.68-5.73-10.81-7.29-1.69-19-4.48-19-4.48-8.47-3.89-19.31-7.05-30.8,7.18h0l-13.52,17.52-11.64,91.2a24.13,24.13,0,0,0,5.09-5.92l42.78-75.75c3.8,1.32,20.7,6.81,20.7,6.81a21.11,21.11,0,0,0,2.94.75c3.72.69,13.4,2.45,18.61,3a4.55,4.55,0,0,0,2.95-.61c2.12.63,3.91,1.17,5.1,1.51,2.75.81,4.21-.81,4.07-3,1.26.4,2.38.73,3.28,1,5.37,1.36,7-4,2.88-7.82C780.26,480.77,779.52,477.09,774.43,474Zm43.2,338.5c.31,1,.64,2.06,1,3.33,5.92-1,12.54,1.26,14.49,5.52,5.64-3.63,8.38,2.19,15.14,2.19,5,0,6.43-2.67,8.31-3.63a77.45,77.45,0,0,1-3-8.12Zm220-292-60.36,20.1-29.77-4.14a10.11,10.11,0,0,0-5.21.66,6.56,6.56,0,0,0-1.83.69l-3.21,2.2a7,7,0,0,0-2.72.33l-15.28,6.81-7.81-2-62.33-24.64a25.9,25.9,0,1,0-9.72,50.87l66.43-.13a14.47,14.47,0,0,0,1.88.13H980a3.72,3.72,0,0,0,.68-.13h.14l66.59.13a25.9,25.9,0,1,0-9.72-50.87ZM572.18,823.07c2.46,1.29,5.25,2.76,10.17,1.56,12.43-3.07,18.4-18.1,36.06-6.89a49.49,49.49,0,0,1,2.15-8.35l-28.41-19.22A135.15,135.15,0,0,1,572.18,823.07ZM714.4,798l-36.18,9.2c2.56,5.84,5.75,13.55,8.18,20.88,9.91,4.8,26.78,7.74,39.4-8.89-5-5.69-8.12-11.58-11.39-21.2ZM456.11,813.15c1.92,7,3.76,14.34,5.19,20.84,4.72,1.47,22.34,5.74,35.29-6.43a94.09,94.09,0,0,1-3.79-14.5Zm-102.77-.08c-.11,7.9-.51,15.35-1.62,20.51h0s22.35,8.52,37.45-6.86a102,102,0,0,1,.47-13.57ZM282,471.93c6.88,7.68,11.58,3.58,11.58,3.58l12-30.34A24.81,24.81,0,0,0,340.9,426l4-31.21a29.84,29.84,0,0,0-1.6-14.22c-1.12-.09-2.23-.2-3.36-.36-10.5-1.49-27.09-7-38.15-13.67-6.62,11,2.37,33-12,37.67.43-5.1-.17-11.14-5.1-12.35-5.61-1.38-9.06,2.74-10.61,9-.86,3.43.48,7,3.39,9.92l-17.66,43.22Zm806,75.88,6.47-1.71a4.51,4.51,0,0,0,3.79-4.7c0-2-2.78-2-4.67-2H1087a4,4,0,0,0-4,4v.51A4,4,0,0,0,1088,547.81Zm7.12,1.51-8.14-.64a4.35,4.35,0,0,0-.74,8.67,3.84,3.84,0,0,0-1.77,3.14,4,4,0,0,0,2.53,3.58,3.66,3.66,0,0,0-1.06,2.7v.12a3.7,3.7,0,0,0,4.51,3.5l.7-.16a3.69,3.69,0,0,0,1.61-6.38h0a3.4,3.4,0,0,0,2.83-3.17V560a3.47,3.47,0,0,0-3.28-3.24l-.92-.1,3.95-.62a3.4,3.4,0,0,0-.26-6.75Zm183.36-158.57a20.89,20.89,0,0,1-7.59,5.13c-8.23-1.27-9.33-13.12-9.33-13.12-9.76,0-24.58-.61-34.71-6.87a23.66,23.66,0,0,1-12.6,2.25l-1.51,33.22a26.3,26.3,0,0,0,16.48,25.55,26.94,26.94,0,0,0,3.62,1.12l1,15.3c1,11.27,3.55,20.12,16.87,20.12s23.87-9.71,22.91-21l-3.38-21-1.56-19.5a4.07,4.07,0,0,0,2.29.34c6-.88,10.39-4.79,11.14-10C1282.76,397.55,1281.23,393.19,1278.47,390.75Zm-369-27.26a29.29,29.29,0,0,0,11.64,20.58l2.21,30c2.08,13.6,15.5,22.86,30,20.68a24.9,24.9,0,0,0,21.23-28.7l-7.46-47,.18-.73a3.34,3.34,0,0,0,4,1.86,11.79,11.79,0,0,0,8.14-11.2c0-6.61-3.54-12-7.94-12-2.22,0-3.41,4.9-4,9.77a3,3,0,0,0-1.59-.32h0s-3.64-17.22-.82-35.27c-3.46,4-17.12,6.39-27.26,4.74-12.4-2-19.81-5.65-27.73-4a115.76,115.76,0,0,0-2.64,30.79Zm-331.3-3.6a11.68,11.68,0,0,0,6.32-10.41c0-4.76-1.84-8.84-4.52-10.78a115.79,115.79,0,0,0-2.79-26.32c-7.92-1.61-15.33,2-27.72,4-10.15,1.64-23.8-.72-27.26-4.75,2.82,18.05-.83,35.27-.83,35.27h0a3.12,3.12,0,0,0-1.58.32c-.63-4.87-1.82-9.78-4-9.77-4.4,0-7.95,5.38-7.94,12A11.79,11.79,0,0,0,516,360.69a3,3,0,0,0,1.31.13l-6.41,41.88a24.91,24.91,0,0,0,20.94,28.91c14.45,2.32,28-6.8,30.18-20.38l2.55-25.64a29.23,29.23,0,0,0,13.25-21.66Zm600.12,183a5.25,5.25,0,0,0-.55-.48s-10.26-7-10.93-7.52a11.67,11.67,0,0,0-3.89-1.91l-14-4,1,8.06-.8-.08h0l-.56-.05-.43,0-.87-.08h0l-14.35-.17a4.7,4.7,0,0,0-1.83.15c-.16,0-.33,0-.49,0L1117.79,539c-1.93.66-3.4.9-3.3,2.82.08,1.25,1.45,3.94,5.57,4.2s13.15-.17,13.15-.17l.33-.07,4.15.53-.15.48c-9.22,1.32-16.06,2.75-21.15,3.63-7,1.21-4.8,9,1,8.64l.6,0c-1.9,2.18-.31,6.08,3.43,6.29l3.27.19c-1.94,1.9-.8,5,2.89,5.14,6.31.24,20,.1,20,.1l.06,0c18.25,1.47,25.25-.8,28.63-1.79C1184.61,566.45,1187.3,550.25,1178.29,542.84ZM888.57,816.55c7.28-.41,15.69,2.61,17.64,6.91,5.65-3.64,6.17.32,12.93.32,3.94,0,4.86-1.74,5.67-3,.15-2.88.33-6.18.53-9.71H889C888.9,812.86,888.77,814.68,888.57,816.55Z"/><path class="cls-14" d="M512.76,307.42a37.36,37.36,0,0,0-.48,31.34,5.9,5.9,0,0,1,3.48-1.27c2.21,0,3.4,4.91,4,9.78a3.14,3.14,0,0,1,1.59-.33h0s3.64-17.23.82-35.27c3.46,4,17.12,6.38,27.26,4.74,12.4-2,19.81-5.65,27.73-4A116.14,116.14,0,0,1,580,338.71a8,8,0,0,1,.95.81,37.64,37.64,0,0,0-34.14-53.64c-1.14,0-2.26.07-3.38.17,0-.06,0-.11,0-.17a22.92,22.92,0,1,0-30.65,21.54Z"/><path class="cls-14" d="M1229.21,436.91a26.14,26.14,0,0,1-7.24-4.37l-5.74,24.81c.15-.06.27-.14.42-.2h0a20.3,20.3,0,0,1,4-1.32c4.7-1,9-1.81,13.15-2.48h0l-1-15.31A26.89,26.89,0,0,1,1229.21,436.91Z"/><path class="cls-14" d="M1226.84,375.89a33.48,33.48,0,0,0,3.57,1.86c.35.16.69.31,1,.45,1,.44,2.08.83,3.15,1.19.26.08.51.18.78.26,1.22.38,2.48.7,3.75,1,.56.13,1.13.25,1.69.36.73.15,1.46.28,2.2.4,2.79.47,5.58.79,8.29,1,3.7.27,7.23.35,10.25.36,0,0,1.09,11.86,9.33,13.13a20.76,20.76,0,0,0,7.58-5.13c2.77,2.43,4.3,6.8,3.61,11.53-.75,5.21-5.16,9.11-11.14,10a4.08,4.08,0,0,1-2.29-.35l1.56,19.5,3.38,21h0c6.88.85,14.41,2.17,23.22,4a22.17,22.17,0,0,1,8.41,3.63c-6.38-76.54-26.4-96.77-28.34-98.57a39.05,39.05,0,0,0-8.43-8.29c-13.55-9.73-26.57-9.62-41.34.13h0s-17.29,6.7-12.85,24.74A23.46,23.46,0,0,0,1226.84,375.89Z"/><path class="cls-14" d="M432.83,853.06c-11.67-4.59-26.62-8.13-43.53-26.46-15.1,15.56-37.58,7-37.58,7s-5.71,14.77-3.1,34.72H443.5S445.82,858.16,432.83,853.06Z"/><path class="cls-14" d="M905.53,309a37.61,37.61,0,0,0,1.8,32.18,117,117,0,0,1,2.73-29.22c7.92-1.61,15.33,2,27.72,4,10.15,1.64,23.8-.72,27.26-4.75-2.82,18.06.83,35.28.83,35.28a3.09,3.09,0,0,1,1.58.31c.63-4.86,1.82-9.77,4-9.77,4.4,0,8,5.38,7.94,12a11.79,11.79,0,0,1-8.13,11.2,3.35,3.35,0,0,1-4.06-1.86l-.17.73.72,4.58c6.63-2,22.93-8.76,19.46-25.36,0,0,14.36-19.51-2.55-32.39-1.18-16.47-10.72-23.72-27.31-23.16,0,0-37.65-.1-46,.07-11.9.24-11.54,10.53-6.88,24.09A8.46,8.46,0,0,0,905.53,309Z"/><path class="cls-14" d="M1141.42,494l5.47,42.83h.39l2.64.25-5.5-43.08a2.56,2.56,0,0,0-2.46-2.18h-3A2.54,2.54,0,0,1,1141.42,494Z"/><path class="cls-14" d="M212.58,483.65a46.21,46.21,0,0,1,43.4-30.4c1.38,0,2.74.08,4.09.2l17.47-42.73c-2.91-2.92-4.24-6.5-3.38-9.93,1.55-6.21,5-10.33,10.6-9,4.94,1.21,5.54,7.25,5.11,12.35,14.34-4.69,5.34-26.71,12-37.66,11.06,6.66,27.65,12.17,38.14,13.66,1.13.16,2.25.27,3.37.36a30.09,30.09,0,0,1,1.6,14.22l-4,31.22a24.79,24.79,0,0,1-35.35,19.18l-11.29,28.49c.7,1,1.37,2.09,2,3.18l26.05,30.61q3.93.48,7.62.9l29.16-19.42.14-.08a19.1,19.1,0,0,1,3.3-2.19l3.77-2.8a57,57,0,0,0-2.19-7.53c-4.26-11.72,1.28-19.4,3.23-34.14,1.07-8-2.29-18.36-6.62-28.4-7.12-16.56,5.87-31.06-1.09-47.26-7.95-18.49-28.47-26.4-47.51-25.81a57.68,57.68,0,0,0-16.1,2.64c-15.41,5-25.36,16.5-35.86,31.6a175.41,175.41,0,0,0-9.52,15.33c-4.37,7.86-4,19.43-11.54,28.75-4.6,5.73-12.33,6.29-20.29,15.88-9.28,11.21-9.76,27.24-12,40.58C206.36,478.36,208.49,481.08,212.58,483.65Z"/><path class="cls-14" d="M631.31,842.48c-7.7-7-11.46-14.25-11.18-22.53,0-.54-.37-1-.55-1.49-18.6-12.69-24.52,3-37.23,6.16-6.32,1.56-9.13-1.33-12.23-2.56-4.34,7.61-13.63,25.32-13.74,35.75,0,1.92,0,3.89,0,6a3.86,3.86,0,0,0,3.85,3.88l80.1.68a3.85,3.85,0,0,0,3.81-4.43C642.66,855.17,637.72,848.33,631.31,842.48Z"/><path class="cls-14" d="M1023.38,634.61l.15-8.79a7.82,7.82,0,0,1-4.75-.72c-6-3.05-13.38-8-21.7-13a113.75,113.75,0,0,0-47.68-15.46l-28.53-2.6,0,.06h-.26a33.85,33.85,0,0,0-3.77,0h-.16a31,31,0,0,0-4,.53l-.15,0a34.26,34.26,0,0,0-3.52.91c-.32.1-.63.23-.94.34-.87.31-1.73.63-2.57,1-.38.17-.74.36-1.12.54-.75.37-1.48.77-2.2,1.19-.38.23-.75.45-1.12.69-.7.45-1.36.93-2,1.42l-1,.79c-.68.56-1.32,1.15-2,1.76-.26.25-.54.48-.79.74a34.71,34.71,0,0,0-2.47,2.81c-6.32-.69-13.68-3.31-22.09-9.12l-97.08-.22c-19.72.17-34.74,18.33-32,38.66l.09.47a35.25,35.25,0,0,0,2.51,10l65.45,166,51.15-1c-12.15-49.4-23.33-99.32-35.66-140.33l59.56,6.48-2.78,133.3H933c7-43.37,13.3-91.49,16.65-131.77l16.05,0C994.3,681.44,1020.86,664.31,1023.38,634.61Z"/><path class="cls-14" d="M541.17,853.06c-11.68-4.59-26.62-8.13-43.52-26.46-15.11,15.56-37.58,7-37.58,7s-5.72,14.77-3.11,34.72h94.88S554.16,858.16,541.17,853.06Z"/><path class="cls-14" d="M870.3,584.39l.35,13.37C870.65,597.68,870.56,592.74,870.3,584.39Z"/><path class="cls-14" d="M687.2,705.44c23.88-39,45.29-74,45.56-74.68a25.14,25.14,0,0,0,1.47-6.21,21.68,21.68,0,0,0,.12-5c-1.63-17.59-18.13-30.69-37.51-29.78l-50.43,1.12c-8.76,0-12.56-.38-16.68-.05l-92,7.23-35.71,2.87-5.13.35-30.36,2.39.45,16.57c.5,18.2,8.71,35.55,23.09,46.71a54.82,54.82,0,0,0,35,11.88l0,0h90.39c1.69,7,3.76,14.13,6.1,21.24-16.93,35.8-30.05,70.63-35,86.37l35.94,24.3L650,766.16c9.12,17.78,17.83,32.74,23.57,42.27l42-10.69Z"/><path class="cls-14" d="M1298.74,577.44c-3,8-31.52,9-52.23,6.47V573.52l9-.68a10.28,10.28,0,0,0,7.53-5.14l25.58-45.36a1.26,1.26,0,0,0-2.19-1.23l-25.57,45.36a7.8,7.8,0,0,1-5.62,3.88l-8.55.64.33-.16h-26.63v-.35H967.23a10.79,10.79,0,0,1-1.91-.21h-6.16a17.74,17.74,0,0,1-4.58-7.37l.28-.49,6.32,1.16a1.24,1.24,0,0,0,1.46-1,1.26,1.26,0,0,0-1-1.47l-7.19-1.32a1.25,1.25,0,0,0-1.31.61l-2.58,4.44c-2.2,2.14-5,4.32-7,4a2.55,2.55,0,0,1-2.06-1.75l3.62-10.65a4.83,4.83,0,0,1,4.73-3.17l10.14.51a1.22,1.22,0,0,0,1.32-1.19,1.25,1.25,0,0,0-1.19-1.31L950,550.78a7.27,7.27,0,0,0-7.22,4.85L940,563.78c-1.38,1.83-3.59,4.26-6.16,5.07-2.33.73-3.34-.38-3.8-1.54l7.4-13.8,13.2-5.79a1.25,1.25,0,1,0-1-2.3l-13.61,6a1.29,1.29,0,0,0-.6.55l-7.79,14.53a33.18,33.18,0,0,1-5.28,2.39,4.1,4.1,0,0,1-4.14-1.35l7.45-11.31,13.11-8.58a1.25,1.25,0,1,0-1.37-2.1l-13.33,8.72a1.24,1.24,0,0,0-.36.36l-9.39,14.26a6.93,6.93,0,0,1-4.39-1.11c-4.12-2.45,4-10.84,7.19-13.88l1.19-1.11-42.1,17.72H667.32a3.4,3.4,0,0,0,1.46-2.3l12.86-100.67a2.54,2.54,0,0,0-2.57-2.95H615v-.09h-1.58v.09H597.53l1-15.76a1.26,1.26,0,0,0-1.17-1.34,1.3,1.3,0,0,0-1.33,1.17l-1,15.93H535.29a3.45,3.45,0,0,0-3.32,2.95l-12.66,99.16H450.6v1.51a2.92,2.92,0,0,0,1.17,2.3H261.61V578a498.86,498.86,0,0,1-61.54-2.41,12.74,12.74,0,0,1-5.8-2c-4.34,6.81-13.79,24.91-13.79,53.87,0,37.56,32.78,61.83,65.82,56l22-4.45a50.94,50.94,0,0,0,8.45-.66l18.16-3.06-31.08,193h12.34l32.11-195.24,46.16-7.77c-6,46.44-4,94.44-2.78,147.78l40.52.09,19.22-120.5c10,40.05,24.34,80.38,41.07,120.5l41.29-.09-39.59-198.5a28.57,28.57,0,0,0-4.13-9.9c-5.41-10.19-15.78-16.89-27.41-16.38,0,0-3.2-.12-18.62.44-.38-.08-7.47.31-7.85.25-1.36-.21-41.69,1-74.37,2l1.08-6.58h864.65l1.45,8.83c-.77,0-1.54,0-2.33,0l-105.56,7.27a44.57,44.57,0,0,0-40.6,34.67L997.52,825.4h1.24a25.92,25.92,0,0,1-5.23,7.38c-8.64,9-21.63,16-31,20.55-11.59,5.6-9.57,15-9.57,15h136.76c4.41-17.58-1.38-23.84.5-42.9h29.94L1164.76,679l38.3.2,31.11,189.15h12.34l-30.45-189.09,44.16.22v0l1.7,0c34.63,0,62.71-16.45,62.71-48.6C1324.63,611.45,1314.43,590.8,1298.74,577.44Zm-990.35,14-28,.89h-.11c-.65-2.36-1.54-5.16-2.45-7.9h31.73Zm736.78,241.38a35.19,35.19,0,0,1-6.73,7,76.83,76.83,0,0,1,.12-14.41H1050C1049.13,826.93,1047.66,829.23,1045.17,832.78Z"/><path class="cls-14" d="M916.86,437.28a1.54,1.54,0,0,0,.46.08,1.23,1.23,0,0,0,1.16-.8,1.25,1.25,0,0,0-.71-1.63c-.2-.08-20.46-8.13-16.71-22.87a1.25,1.25,0,1,0-2.43-.62C894.33,428.33,916.64,437.19,916.86,437.28Z"/><path class="cls-14" d="M981,433.35a1.25,1.25,0,0,0-.71,1.63,1.24,1.24,0,0,0,1.16.8,1.48,1.48,0,0,0,.46-.08c.23-.09,22.53-8.94,18.24-25.84a1.26,1.26,0,0,0-2.44.61C1001.47,425.22,981.22,433.28,981,433.35Z"/><path class="cls-14" d="M1181,544.49h.09l50.6-3.82a10.32,10.32,0,0,0,7.54-5.14l25.58-45.36a1.26,1.26,0,0,0-2.19-1.23L1237,534.3a7.82,7.82,0,0,1-5.63,3.88L1180.87,542a1.25,1.25,0,0,0,.1,2.5Z"/><path class="cls-14" d="M740.81,459.89l.23.09c-.88,2.71-3.75,11.12-6.39,14.29a1.26,1.26,0,0,0,.16,1.77,1.3,1.3,0,0,0,.81.29,1.27,1.27,0,0,0,1-.45c.09-.1.17-.23.26-.34l.13.1c9.56,4.2,13.86,6.49,17,8.15l1.88,1a1.17,1.17,0,0,0,.57.14,1.25,1.25,0,0,0,.58-2.36l-1.84-1c-3.15-1.67-7.48-4-16.95-8.14.4-.72.81-1.5,1.2-2.31L761,481.82a1.2,1.2,0,0,0,.55.13,1.25,1.25,0,0,0,.56-2.38l-21.7-10.73c.54-1.26,1-2.53,1.47-3.69,4.08,2,17.5,8.52,24.81,12.43a1.25,1.25,0,0,0,1.7-.52,1.25,1.25,0,0,0-.52-1.69c-7.49-4-21.34-10.76-25.13-12.6.47-1.39.8-2.41.91-2.76.05-.08.13-.12.17-.21a1.25,1.25,0,0,0-.67-1.64l-1.39-.59c-5.72-2.37-9.17-3.8-15.24-9.11a1.25,1.25,0,1,0-1.65,1.89C731.26,455.93,735.06,457.5,740.81,459.89Z"/><path class="cls-14" d="M1117.92,560.74a1.12,1.12,0,0,0,.36,0c6.3-1.85,23.85-6.31,29.23-4.79a1.26,1.26,0,0,0,.68-2.42c-7.18-2-29.67,4.52-30.63,4.8a1.26,1.26,0,0,0,.36,2.46Z"/><path class="cls-14" d="M1147.85,561.83h0c-10.61.08-23,2.79-23.5,2.9a1.25,1.25,0,1,0,.54,2.45c.13,0,12.64-2.76,23-2.84a1.26,1.26,0,0,0,0-2.51Z"/><path class="cls-14" d="M265.23,471.49a1.25,1.25,0,0,0-.42,1.72l23.51,38.89a1.24,1.24,0,0,0,1.08.61,1.21,1.21,0,0,0,.65-.18,1.25,1.25,0,0,0,.42-1.72L267,471.92A1.26,1.26,0,0,0,265.23,471.49Z"/><path class="cls-14" d="M233.94,499.13a1.25,1.25,0,0,0-.37,1.74l21,32.37a1.26,1.26,0,0,0,1.06.58,1.16,1.16,0,0,0,.68-.21,1.25,1.25,0,0,0,.37-1.73l-21-32.38A1.25,1.25,0,0,0,233.94,499.13Z"/><path class="cls-14" d="M363.09,523l-47.5,35.45a1.25,1.25,0,1,0,1.5,2L364.59,525a1.25,1.25,0,0,0,.25-1.76A1.24,1.24,0,0,0,363.09,523Z"/><path class="cls-14" d="M395.22,491.5H428a1.12,1.12,0,0,0,0-2.23H395.22a1.12,1.12,0,1,0,0,2.23Z"/><path class="cls-14" d="M393,499.64h27.3a1.12,1.12,0,1,0,0-2.23H393a1.12,1.12,0,1,0,0,2.23Z"/><path class="cls-14" d="M391,508.07h0l16-.56a1.12,1.12,0,0,0,0-2.23h0l-16.05.56a1.12,1.12,0,0,0,0,2.23Z"/><path class="cls-14" d="M463.88,510.74h0a1.25,1.25,0,0,0,1.25-1.23L466,455.2a1.24,1.24,0,0,0-1.23-1.27,1.3,1.3,0,0,0-1.28,1.24l-.84,54.3A1.25,1.25,0,0,0,463.88,510.74Z"/><path class="cls-14" d="M298.41,498.22l-.36,28.47,1.21,2.07,1.29-.85.37-29.66a1.25,1.25,0,0,0-1.23-1.27A1.29,1.29,0,0,0,298.41,498.22Z"/><path class="cls-14" d="M1024.77,524.76l-6.28-71.51a1.3,1.3,0,0,0-1.35-1.14,1.27,1.27,0,0,0-1.15,1.35l6.33,72.11Z"/><path class="cls-14" d="M871.36,529.25a1.19,1.19,0,0,0,.3-.86L868,453.19a1.18,1.18,0,0,0-1.31-1.2,1.27,1.27,0,0,0-1.2,1.32l3.67,75.07Z"/><path class="cls-14" d="M931.84,858.66h0l-145.94,1.13c-1.26-3.14-3.65-5.57-9.19-7.9-.53-.26-1.05-.52-1.64-.78-2.07-.89-4.29-1.92-6.62-3.05-15.31-7.43-35.07-19.43-42.61-28.86-12.93,17.07-30.36,13.57-40.16,8.57-3.4,10.47-3.88,22.46-3.69,30.68.06,2.49.18,4.64.3,6.28a3.84,3.84,0,0,0,3.84,3.56h97.06a3.86,3.86,0,0,0,3.83-4.35c-.1-.57-.22-1.11-.34-1.65l145.17-1.13a1.25,1.25,0,0,0,0-2.5Z"/><g class="cls-15"><path class="cls-16" d="M282.15,591.89a1.25,1.25,0,0,1-1.11,1.38l-39.29,4.29h-.14a1.25,1.25,0,0,1-.13-2.5l39.29-4.29A1.24,1.24,0,0,1,282.15,591.89Zm121.12,8c11.11,6.63,18.14,20.48,16.33,32.23l-11.33,71.81a1.27,1.27,0,0,0,1.05,1.44l.2,0a1.26,1.26,0,0,0,1.24-1.06l11.32-71.83c1.95-12.69-5.59-27.65-17.53-34.77a1.26,1.26,0,0,0-1.72.43A1.28,1.28,0,0,0,403.27,599.88Zm38.22,259.94H348a1.26,1.26,0,1,0,0,2.51H441.5a1.26,1.26,0,1,0,0-2.51Zm109-.77H457a1.26,1.26,0,1,0,0,2.51h93.49a1.26,1.26,0,1,0,0-2.51ZM681.9,628a1.26,1.26,0,0,0-1.74.38l-11.78,18.26a1.26,1.26,0,0,0,2.11,1.37l11.78-18.27A1.26,1.26,0,0,0,681.9,628Zm-62.42,29.39a1.25,1.25,0,0,0-1.44,1l-3.38,19.75a1.25,1.25,0,0,0,1,1.45.86.86,0,0,0,.22,0,1.25,1.25,0,0,0,1.23-1l3.39-19.75A1.25,1.25,0,0,0,619.48,657.42Zm507.25,141.74h-70l34.64-158.45a42.93,42.93,0,0,1,14.08-23.44,1.28,1.28,0,0,0,.14-1.78,1.26,1.26,0,0,0-1.77-.13,45.29,45.29,0,0,0-14.9,24.82l-34.76,159h-51.63a1.26,1.26,0,0,0,0,2.51h51.08l-5,22.86a1.25,1.25,0,0,0,1,1.49l.27,0a1.24,1.24,0,0,0,1.22-1l5.12-23.4h70.54a1.26,1.26,0,0,0,0-2.51ZM1039,837c-6.64,8.25-18.42,12.83-27.89,16.52-1.35.52-2.65,1-3.86,1.51-12.69,5.11-11.6,13.21-11.54,13.55a1.25,1.25,0,0,0,1.23,1.06h.18a1.27,1.27,0,0,0,1.07-1.42c0-.26-.74-6.53,10-10.86l3.82-1.5c9.75-3.79,21.88-8.51,29-17.27a1.26,1.26,0,0,0-2-1.58ZM890.17,613.28a34,34,0,0,0-7.22,20.4l-1.07,51.1a1.26,1.26,0,0,0,1.23,1.28h0a1.25,1.25,0,0,0,1.25-1.23l1.07-51.1a31.56,31.56,0,0,1,6.69-18.91,1.25,1.25,0,0,0-2-1.54ZM804,646.93a1.25,1.25,0,1,0-1.83,1.71l23.37,25.08a1.27,1.27,0,0,0,.92.4,1.23,1.23,0,0,0,.86-.34,1.25,1.25,0,0,0,.06-1.77Zm147.7,14.55a1.3,1.3,0,0,0-1.34,1.16l-1.74,24.24a1.27,1.27,0,0,0,1.17,1.34h.09a1.25,1.25,0,0,0,1.25-1.16l1.73-24.24A1.25,1.25,0,0,0,951.68,661.48Z"/></g><g class="cls-17"><polygon class="cls-18" points="1104.17 258.8 1136.08 240.26 1170.86 260.34 1138.94 278.88 1104.17 258.8"/><polygon class="cls-19" points="1138.94 278.88 1170.86 260.34 1170.74 300.47 1138.83 319.01 1138.94 278.88"/><polygon class="cls-20" points="1104.05 298.94 1104.17 258.8 1138.94 278.88 1138.83 319.01 1104.05 298.94"/></g><g class="cls-17"><path class="cls-2" d="M1158.77,194.12l31.91-18.55a114,114,0,0,0-10.5,13.18q-4,6.09-6.85,16.92t-2.85,27.65l-31.91,18.54q0-16.8,2.85-27.65t6.85-16.91A114,114,0,0,1,1158.77,194.12Z"/><g class="cls-21"><g class="cls-17"><path class="cls-22" d="M1158.77,194.12l31.91-18.55a114,114,0,0,0-10.5,13.18l-.38.58-31.91,18.55.38-.58a114,114,0,0,1,10.5-13.18Z"/><path class="cls-23" d="M1147.89,207.88l31.91-18.55a38.2,38.2,0,0,0-2.18,4l-31.91,18.54a37,37,0,0,1,2.18-4Z"/><path class="cls-24" d="M1145.71,211.87l31.91-18.54q-1,2-1.83,4.38l-31.91,18.54q.87-2.35,1.83-4.38Z"/><path class="cls-25" d="M1143.88,216.25l31.91-18.54c-.59,1.57-1.14,3.26-1.67,5.06l-31.91,18.55c.53-1.8,1.08-3.49,1.67-5.07Z"/><path class="cls-26" d="M1142.21,221.32l31.91-18.55c-.27.94-.54,1.9-.79,2.9-.15.57-.3,1.17-.43,1.77L1141,226c.13-.6.28-1.19.43-1.77.25-1,.52-2,.79-2.89Z"/><path class="cls-27" d="M1141,226l31.91-18.54c-.28,1.23-.54,2.52-.77,3.86l-31.91,18.55c.23-1.34.49-2.63.77-3.87Z"/><path class="cls-28" d="M1140.22,229.85l31.91-18.55c-.24,1.39-.46,2.83-.64,4.33l-31.91,18.55c.18-1.5.4-3,.64-4.33Z"/><path class="cls-29" d="M1139.58,234.18l31.91-18.55c-.2,1.58-.37,3.23-.51,4.93l-31.91,18.54q.21-2.55.51-4.92Z"/><path class="cls-30" d="M1139.07,239.1,1171,220.56c-.15,1.82-.26,3.72-.35,5.68l-31.91,18.55c.09-2,.2-3.86.35-5.69Z"/><path class="cls-31" d="M1138.72,244.79l31.91-18.55c-.09,2.14-.14,4.35-.15,6.66l-31.91,18.54q0-3.45.15-6.65Z"/><path class="cls-32" d="M1138.57,251.44l31.91-18.54v.42l-31.91,18.54v-.42Z"/></g></g><path class="cls-3" d="M1111.41,91.86l31.91-18.54a8.27,8.27,0,0,0-2.44,2.2q-4.67,6.08-4.86,24.34l-31.91,18.55q.21-18.27,4.86-24.34A8.17,8.17,0,0,1,1111.41,91.86Z"/><g class="cls-33"><g class="cls-17"><path class="cls-34" d="M1111.41,91.86l31.91-18.54a8.27,8.27,0,0,0-2.44,2.2c-.21.27-.4.55-.59.85l-31.91,18.54a8.93,8.93,0,0,1,.59-.84,8.17,8.17,0,0,1,2.44-2.21Z"/><path class="cls-35" d="M1108.38,94.91l31.91-18.54a14.37,14.37,0,0,0-.89,1.61l-31.91,18.55a13.69,13.69,0,0,1,.89-1.62Z"/><path class="cls-36" d="M1107.49,96.53,1139.4,78c-.24.52-.48,1.08-.7,1.67l-31.91,18.54c.22-.59.45-1.14.7-1.66Z"/><path class="cls-37" d="M1106.79,98.19l31.91-18.54c-.21.57-.41,1.18-.59,1.82L1106.2,100c.18-.64.38-1.25.59-1.82Z"/><path class="cls-38" d="M1106.2,100l31.91-18.54c-.19.64-.37,1.32-.53,2l-31.91,18.54c.16-.71.34-1.39.53-2Z"/><path class="cls-39" d="M1105.67,102.05l31.91-18.54c-.17.74-.33,1.53-.47,2.35L1105.2,104.4c.14-.82.3-1.6.47-2.35Z"/><path class="cls-40" d="M1105.2,104.4l31.91-18.54c-.15.87-.29,1.79-.41,2.75l-31.91,18.54c.12-1,.26-1.87.41-2.75Z"/><path class="cls-41" d="M1104.79,107.15l31.91-18.54c-.13,1-.24,2.14-.33,3.28l-31.91,18.54c.09-1.14.2-2.23.33-3.28Z"/><path class="cls-42" d="M1104.46,110.43l31.91-18.54c-.11,1.26-.19,2.58-.24,4l-31.91,18.54c0-1.38.13-2.71.24-4Z"/><path class="cls-43" d="M1104.22,114.4l31.91-18.54c-.06,1.28-.09,2.61-.11,4l-31.91,18.55c0-1.39.05-2.73.11-4Z"/></g></g><path class="cls-4" d="M1176.54,148.88l31.91-18.54q0,12.53-2.45,20.83a47,47,0,0,1-5.87,13.37,79.44,79.44,0,0,1-9.45,11l-31.91,18.55a78.89,78.89,0,0,0,9.45-11,47.1,47.1,0,0,0,5.87-13.36Q1176.51,161.41,1176.54,148.88Z"/><g class="cls-44"><g class="cls-17"><path class="cls-45" d="M1176.54,148.88l31.91-18.54v.27l-31.91,18.54v-.27Z"/><path class="cls-46" d="M1176.54,149.15l31.91-18.54c0,1.5,0,3-.1,4.37l-31.91,18.55c.06-1.42.09-2.87.1-4.38Z"/><path class="cls-47" d="M1176.44,153.53,1208.35,135c-.06,1.34-.14,2.63-.24,3.89l-31.91,18.54c.1-1.25.18-2.55.24-3.88Z"/><path class="cls-48" d="M1176.2,157.41l31.91-18.54c-.1,1.2-.22,2.36-.36,3.49l-31.91,18.54c.14-1.12.26-2.29.36-3.49Z"/><path class="cls-49" d="M1175.84,160.9l31.91-18.54c-.13,1.1-.29,2.16-.47,3.18l-31.91,18.55c.18-1,.34-2.09.47-3.19Z"/><path class="cls-50" d="M1175.37,164.09l31.91-18.55c-.17,1-.37,2-.58,2.94L1174.79,167c.21-.94.41-1.92.58-2.93Z"/><path class="cls-51" d="M1174.79,167l31.91-18.54c-.22.93-.45,1.83-.7,2.69l0,.08-31.91,18.54,0-.07c.25-.87.48-1.76.7-2.7Z"/><path class="cls-52" d="M1174.07,169.79,1206,151.25q-.7,2.42-1.5,4.55l-31.91,18.55q.79-2.15,1.5-4.56Z"/><path class="cls-53" d="M1172.57,174.35l31.91-18.55c-.53,1.45-1.1,2.8-1.7,4.06l-31.91,18.55c.6-1.26,1.17-2.62,1.7-4.06Z"/><path class="cls-54" d="M1170.87,178.41l31.91-18.55a36,36,0,0,1-2.09,3.83l-31.91,18.55a37,37,0,0,0,2.09-3.83Z"/><path class="cls-55" d="M1168.78,182.24l31.91-18.55-.56.85a79.44,79.44,0,0,1-9.45,11l-31.91,18.55a78.89,78.89,0,0,0,9.45-11c.19-.27.37-.55.56-.84Z"/></g></g><polygon class="cls-56" points="1176.54 148.37 1208.45 129.82 1208.45 130.34 1176.54 148.88 1176.54 148.37"/><path class="cls-5" d="M1170.29,112.29l31.91-18.54a102.24,102.24,0,0,1,6.25,36.08l-31.91,18.54A102.28,102.28,0,0,0,1170.29,112.29Z"/><g class="cls-57"><g class="cls-17"><path class="cls-58" d="M1170.29,112.29l31.91-18.54c.08.2.15.41.23.61l-31.91,18.55-.23-.62Z"/><path class="cls-59" d="M1170.52,112.91l31.91-18.55c.27.77.54,1.53.8,2.3l-31.91,18.54c-.26-.77-.53-1.53-.8-2.29Z"/><path class="cls-60" d="M1171.32,115.2l31.91-18.54c.27.8.52,1.61.77,2.42l-31.91,18.54c-.25-.81-.5-1.62-.77-2.42Z"/><path class="cls-61" d="M1172.09,117.62,1204,99.08q.39,1.26.75,2.55l-31.91,18.54q-.36-1.28-.75-2.55Z"/><path class="cls-62" d="M1172.84,120.17l31.91-18.54c.24.88.47,1.76.69,2.65l-31.91,18.54c-.22-.89-.45-1.77-.69-2.65Z"/><path class="cls-63" d="M1173.53,122.82l31.91-18.54c.23.91.44,1.83.65,2.75l-31.91,18.55c-.21-.92-.42-1.84-.65-2.76Z"/><path class="cls-64" d="M1174.18,125.58,1206.09,107q.3,1.43.57,2.85l-31.91,18.54c-.18-.95-.37-1.9-.57-2.84Z"/><path class="cls-65" d="M1174.75,128.42l31.91-18.54c.19,1,.36,2,.51,3l-31.91,18.54c-.15-1-.32-2-.51-3Z"/><path class="cls-66" d="M1175.26,131.37l31.91-18.54c.16,1,.31,2,.44,3.06l-31.91,18.55c-.13-1-.28-2.05-.44-3.07Z"/><path class="cls-67" d="M1175.7,134.44l31.91-18.55c.13,1.07.25,2.14.35,3.22l-31.91,18.54c-.1-1.08-.22-2.15-.35-3.21Z"/><path class="cls-68" d="M1176.05,137.65,1208,119.11c.11,1.12.2,2.26.27,3.4l-31.91,18.54c-.07-1.14-.16-2.27-.27-3.4Z"/><path class="cls-69" d="M1176.32,141.05l31.91-18.54c.08,1.2.14,2.41.17,3.63l-31.91,18.54c0-1.22-.09-2.43-.17-3.63Z"/><path class="cls-70" d="M1176.49,144.68l31.91-18.54c0,1.22.06,2.45,0,3.69l-31.91,18.54c0-1.24,0-2.47,0-3.69Z"/></g></g><path class="cls-6" d="M1085.14,50.88l31.91-18.54a19.82,19.82,0,0,1,8.41-2.57q11.8-1,29.42,9.17a111,111,0,0,1,29,23.79,101.42,101.42,0,0,1,18.3,31l-31.91,18.54a101.37,101.37,0,0,0-18.3-31,111,111,0,0,0-29-23.8q-17.61-10.17-29.42-9.17A19.82,19.82,0,0,0,1085.14,50.88Z"/><g class="cls-71"><g class="cls-17"><path class="cls-72" d="M1085.14,50.88l31.91-18.54a18.27,18.27,0,0,1,3.24-1.49l-31.91,18.54a19,19,0,0,0-3.24,1.49Z"/><path class="cls-73" d="M1088.38,49.39l31.91-18.54a20.47,20.47,0,0,1,2.74-.75l-31.91,18.55a19,19,0,0,0-2.74.74Z"/><path class="cls-74" d="M1091.12,48.65,1123,30.1c.75-.14,1.52-.25,2.31-.32l-31.91,18.54a21.4,21.4,0,0,0-2.31.33Z"/><path class="cls-75" d="M1093.43,48.32l31.91-18.54h.12c.67-.06,1.36-.09,2.06-.09l-31.91,18.54c-.7,0-1.39,0-2.06.09Z"/><path class="cls-76" d="M1095.61,48.22l31.91-18.54c.69,0,1.4,0,2.12.07l-31.91,18.54c-.72,0-1.43-.07-2.12-.07Z"/><path class="cls-77" d="M1097.73,48.29l31.91-18.54c.68.05,1.38.12,2.1.22l-31.91,18.54c-.72-.1-1.42-.17-2.1-.22Z"/><path class="cls-78" d="M1099.83,48.51,1131.74,30c.69.09,1.4.21,2.12.35l-31.92,18.54c-.71-.14-1.42-.26-2.11-.35Z"/><path class="cls-79" d="M1101.94,48.86l31.92-18.54c.71.14,1.43.3,2.17.48l-31.91,18.55c-.74-.19-1.46-.35-2.18-.49Z"/><path class="cls-80" d="M1104.12,49.35,1136,30.8c.74.19,1.5.4,2.26.63L1106.38,50c-.76-.23-1.52-.44-2.26-.62Z"/><path class="cls-81" d="M1106.38,50l31.91-18.54c.79.24,1.58.5,2.38.78l-31.91,18.54c-.8-.28-1.59-.54-2.38-.78Z"/><path class="cls-82" d="M1108.76,50.75l31.91-18.54c.83.29,1.68.61,2.53.95l-31.91,18.55c-.85-.35-1.7-.66-2.53-1Z"/><path class="cls-83" d="M1111.29,51.71l31.91-18.55c.89.36,1.8.74,2.72,1.16L1114,52.86c-.92-.41-1.83-.8-2.72-1.15Z"/><path class="cls-84" d="M1114,52.86l31.91-18.54c1,.43,2,.9,3,1.39L1117,54.26c-1-.5-2-1-3-1.4Z"/><path class="cls-85" d="M1117,54.26l31.91-18.55c1.07.53,2.15,1.09,3.26,1.69l-31.91,18.54c-1.11-.59-2.19-1.16-3.26-1.68Z"/><path class="cls-86" d="M1120.23,55.94l31.91-18.54c.9.49,1.82,1,2.74,1.54l.89.51L1123.86,58l-.89-.52c-.92-.53-1.84-1-2.74-1.54Z"/><path class="cls-87" d="M1123.86,58l31.91-18.55c1.23.73,2.45,1.47,3.64,2.23L1127.5,60.23c-1.19-.76-2.41-1.51-3.64-2.23Z"/><path class="cls-88" d="M1127.5,60.23l31.91-18.55c1.15.73,2.29,1.48,3.4,2.24L1130.9,62.47c-1.11-.77-2.25-1.51-3.4-2.24Z"/><path class="cls-89" d="M1130.9,62.47l31.91-18.55c1.08.74,2.14,1.5,3.18,2.26l-31.91,18.55c-1-.77-2.1-1.52-3.18-2.26Z"/><path class="cls-90" d="M1134.08,64.73,1166,46.18c1,.75,2,1.51,3,2.29L1137.08,67q-1.47-1.16-3-2.28Z"/><path class="cls-91" d="M1137.08,67,1169,48.47c1,.76,1.91,1.53,2.83,2.31l-31.91,18.54c-.92-.78-1.87-1.55-2.83-2.31Z"/><path class="cls-92" d="M1139.91,69.32l31.91-18.54c.9.76,1.79,1.53,2.66,2.31l-31.91,18.55c-.87-.79-1.76-1.56-2.66-2.32Z"/><path class="cls-93" d="M1142.57,71.64l31.91-18.55c.83.75,1.65,1.52,2.46,2.29L1145,73.92q-1.21-1.15-2.46-2.28Z"/><path class="cls-94" d="M1145,73.92l31.91-18.54c.76.73,1.52,1.48,2.26,2.23l-31.91,18.55c-.75-.76-1.5-1.5-2.26-2.24Z"/><path class="cls-95" d="M1147.29,76.16l31.91-18.55c.69.72,1.38,1.44,2.06,2.17l-31.91,18.54c-.68-.73-1.37-1.45-2.06-2.16Z"/><path class="cls-96" d="M1149.35,78.32l31.91-18.54q1,1,1.89,2.1l-31.91,18.54q-.93-1.07-1.89-2.1Z"/><path class="cls-97" d="M1151.24,80.42l31.91-18.54.75.85,1,1.23L1153,82.51l-1-1.23-.75-.86Z"/><path class="cls-98" d="M1153,82.51,1184.94,64q.91,1.11,1.8,2.22l-31.91,18.55q-.88-1.12-1.8-2.22Z"/><path class="cls-99" d="M1154.83,84.73l31.91-18.55c.64.82,1.26,1.63,1.87,2.46L1156.7,87.18c-.61-.82-1.23-1.64-1.87-2.45Z"/><path class="cls-100" d="M1156.7,87.18l31.91-18.54c.85,1.15,1.68,2.31,2.47,3.49l-31.91,18.54c-.79-1.18-1.62-2.34-2.47-3.49Z"/><path class="cls-101" d="M1159.17,90.67l31.91-18.54c1.28,1.88,2.5,3.81,3.64,5.77l-31.91,18.54c-1.14-2-2.36-3.88-3.64-5.77Z"/><path class="cls-102" d="M1162.81,96.44l31.91-18.54c.67,1.14,1.31,2.29,1.93,3.46L1164.74,99.9c-.62-1.16-1.26-2.32-1.93-3.46Z"/><path class="cls-103" d="M1164.74,99.9l31.91-18.54c.42.8.84,1.6,1.24,2.42L1166,102.32c-.4-.81-.82-1.62-1.24-2.42Z"/><path class="cls-104" d="M1166,102.32l31.91-18.54c.35.7.69,1.4,1,2.11L1167,104.43c-.33-.71-.67-1.41-1-2.11Z"/><path class="cls-105" d="M1167,104.43l31.91-18.54c.32.68.63,1.37.94,2l-31.91,18.55c-.31-.69-.62-1.38-.94-2.06Z"/><path class="cls-106" d="M1167.94,106.49l31.91-18.55c.3.69.6,1.38.89,2.07l-31.92,18.55c-.28-.7-.58-1.39-.88-2.07Z"/><path class="cls-107" d="M1168.82,108.56,1200.74,90c.29.71.57,1.42.85,2.14l-31.91,18.54c-.28-.72-.56-1.43-.86-2.13Z"/><path class="cls-108" d="M1169.68,110.69l31.91-18.54c.21.53.41,1.06.61,1.6l-31.91,18.54c-.2-.54-.4-1.07-.61-1.6Z"/></g></g><path class="cls-109" d="M1170.29,112.29a102.28,102.28,0,0,1,6.25,36.08v.51q0,12.52-2.45,20.84a47.1,47.1,0,0,1-5.87,13.36,78.89,78.89,0,0,1-9.45,11,114,114,0,0,0-10.5,13.18q-4.05,6.07-6.85,16.91t-2.85,27.65l-34-19.65q.06-19.54,3.31-32.36t7.75-19.92a119,119,0,0,1,11.56-15.06,128.57,128.57,0,0,0,8.17-10,35.11,35.11,0,0,0,4.82-10.19,50.53,50.53,0,0,0,1.91-14.53v-.69a44.81,44.81,0,0,0-5-21.41,35.76,35.76,0,0,0-13.94-14.58q-9.56-5.5-14.2.57t-4.86,24.34l-34.62-20q.36-24.18,6.3-36.64t17.76-13.46q11.81-1,29.42,9.17a111,111,0,0,1,29,23.8A101.37,101.37,0,0,1,1170.29,112.29Z"/></g></svg>